<svg xmlns="http://www.w3.org/2000/svg" xmlns:xlink="http://www.w3.org/1999/xlink" id="Layer_1" x="0px" y="0px" viewBox="0 0 433 86.4" style="enable-background:new 0 0 433 86.4;" xml:space="preserve"><style type="text/css">	.st0{fill-rule:evenodd;clip-rule:evenodd;fill:#FFFFFF;}	.st1{fill-rule:evenodd;clip-rule:evenodd;fill:#DF0D19;}	.st2{fill-rule:evenodd;clip-rule:evenodd;fill:#3871B8;}	.st3{fill-rule:evenodd;clip-rule:evenodd;fill:#007F37;}	.st4{fill-rule:evenodd;clip-rule:evenodd;fill:#E0DD00;}	.st5{fill-rule:evenodd;clip-rule:evenodd;fill:#2CA138;}	.st6{fill-rule:evenodd;clip-rule:evenodd;fill:#F8C300;}	.st7{fill-rule:evenodd;clip-rule:evenodd;fill:#F28B00;}	.st8{fill-rule:evenodd;clip-rule:evenodd;fill:#931D60;}	.st9{fill-rule:evenodd;clip-rule:evenodd;fill:#29307B;}	.st10{fill-rule:evenodd;clip-rule:evenodd;fill:#0088CB;}	.st11{fill-rule:evenodd;clip-rule:evenodd;fill:#4A2911;}	.st12{fill-rule:evenodd;clip-rule:evenodd;fill:#8DAE24;}	.st13{fill-rule:evenodd;clip-rule:evenodd;fill:#E6D181;}	.st14{fill-rule:evenodd;clip-rule:evenodd;fill:#100E0A;}	.st15{fill:#1A1A18;}	.st16{fill:#183761;}</style><g>	<g>		<path class="st0" d="M53.1,3.1c22.2,0,40.1,18,40.1,40.1s-18,40.1-40.1,40.1S13,65.4,13,43.2l0,0C13,21.1,31,3.1,53.1,3.1   L53.1,3.1z"></path>		<path class="st1" d="M31.4,61.2c0,0,0.3,0.2,0.4,0.3l0.3-1c0.2-0.5,0-0.1,0.2-0.4c0.9-3.5,0.6-3.4,2.8-4.6l3.7-2   c0.6-0.3,0.8-0.3,0.8-1c-1.1-0.4-3.6,1.3-4.9,1.4c0.3-0.6,2.2-2.1,3-2.9c0.7-0.8,0.3-0.3,1.2-0.7l-0.6,0.1V50   c-1,0.2-4.1,2.6-5.1,3.3c-1.9,1.3-0.8,0.9-4.6,0.2c-0.5-0.1-1.4-0.2-1.7-0.5c1.2-1.4,2.3-3.5,3.5-3.7c1.2-0.2,5.9-0.4,6.6-0.9   c0-1.1-1.3-0.8-3.4-0.8c-0.7,0-1,0.1-1.4-0.3c1.6-0.8,4.2-1.1,4.3-2.1c-0.6-0.3-5,0.8-6.1,1.1c-1.9,0.5-2.1-0.5-3.9-1.6   c-1.1-0.7-0.8-0.4-1.1-1c2.4-0.9,3-2.6,5.2-2c1,0.3,5.4,1.7,6,1.4c0.2-0.9,0-0.7-2-1.6c-0.8-0.2-1.6-0.6-2.3-1.2   c1.1-0.1,4.2,0.3,5-0.2c-0.1-0.7-1.1-0.7-2.7-0.9c-1.1-0.1-2.2-0.3-3.3-0.5c-1.6-0.2-1.4-0.4-2.2-1.5c-0.5-0.7-1-1.5-1.5-2.3   l0.1-0.1l1.2-0.4c3.3-0.9,2.5-1,4.4,0.2c0.9,0.5,4.5,3,4.9,2.6l0.1-0.2c0-0.2,0-0.2-0.1-0.3c-0.2-0.3-3.3-2.6-3.6-3.2   c1.1,0.1,4.3,1.6,5,1.1c-0.5-1.4-6.1-2.2-6.8-4.1c-0.3-1-0.6-1.9-0.9-2.9l-0.5-1.3c-0.4-0.6,0-0.3-0.7-0.4l0.2,4.5   c-0.7-0.3-0.3-0.1-0.8-0.6c-0.2-0.2-0.5-0.4-0.7-0.6c-0.6-0.3-1.4-0.2-1.9,0.4c-1.4,2,2.4,2.5,2.4,2.5c-0.5,0.5-1.1,0.9-1.7,1.3   c-2,1.4-0.9,0.3-2,0.7c0,1.1,1.1,3.2,1.4,4.4c0,0-3-2-3.6,0.2c-0.5,1.8,1.9,1.9,3.2,1.5c-0.8,1.2-1.8,2.4-2.9,3.3   c0,0-0.1,0-0.1,0.1l-0.2,0c0.3,0.7,0.8,1.3,1.3,1.8c0.3,0.3,0.4,0.5,0.7,0.8c0.5,0.6,0.5,0.4,0.8,1.1c-1.8-0.3-3.4-0.2-3.1,1.9   c1.2,1.8,2.6,0.2,3.5-0.1c-1.6,5.1-2.7,4,2.8,6.5c-0.3,0.3-0.1,0.1-0.5,0.3c-0.1,0-0.4,0.1-0.5,0.2c-2.8,0.9-1.2,4,0.8,2.6   c0.7-0.5,0.9-1.2,1.3-1.5L31.4,61.2L31.4,61.2z"></path>		<path class="st2" d="M46.7,15.9l0.4,0.3L47,16.8c0.2-0.2,0.1-0.1,0.4-0.2c1,1.5,3.1,3,3.1,4.2c0,1.5-0.4,3.7-0.5,5   c-0.1,1.2-0.2,1.4,0.2,1.7c0.8,0.8,1.2-3.1,1.5-4.1c0.2-0.8,0-0.3,0.4-0.5c0.2,0.7,0.3,1.7,0.4,2.5c0.3,1.8,0.1,2.1,0.9,2.2   c0.6-1.2-0.4-5.6,0-7.1c0.1-0.5,1.4-1.6,1.8-2c0.6-0.7,1.3-1.3,2-1.8c0.5,0.9,0.9,1.8,1.2,2.7c0.6,1.5,0.9,1.3,0.3,2.9   c-0.4,1.1-2.4,5-2.1,5.9c0.9,0,1.2-1.1,1.6-1.7c0.4-0.7,0.7-1.7,1.6-2.2c-0.1,1.3-0.7,3.8-0.4,4.6c0,0,0,0.1,0.1,0.1   c0,0,0,0.1,0.1,0.1c0.7-0.4,1.7-4.9,2-5.9c0.4-1.4,0.8-1.3,2-1.9c0.9-0.5,1.8-0.9,2.8-1.3c0.2,5.4,1,3.8-3.2,8   c-0.4,0.4-0.6,0.5-1,1c-0.8,0.8-0.7,0.8-0.5,1.1c0.6,0.5,3.2-2.3,4.4-2.7c-0.3,1.2-2.4,3.5-2.3,4.7c0.7-0.1,1.3-1.1,2-2   c4.1-5.3,1.5-3,8.1-4.1c0.2,0.3,0.2-0.3,0.2,0.6c0.5-0.5,0.2-0.7,0.7-1v4.2c0.6,0.4,0.2,0.1,0.3-0.1c-0.4-0.5,0-3.2-0.2-4.2   c-1.6-0.5-3.3-0.8-4.9-0.9c0.3-0.6,0.1-0.3,0.7-0.7c2.9-1.8-0.5-4.7-1.8-1.6L68.6,23c-0.1,0.2-0.1,0.2-0.2,0.3l-1.5-4.1l-4.5,0.9   c0.2-0.6,2.1-2.6,0.3-3.6c-1.3-0.7-2.2,0.7-2,2.9c-0.9-0.5-2.2-2.5-3.4-3.3c-1.5,0.4-2.7,1.7-4,2.1c0.3-1.1,1.1-3.4-0.8-3.5   c-0.7,0-1.3,0.5-1.4,1.2c-0.2,1,0.3,1.4,0.5,2.2c-0.8-0.4-3.5-2.1-4.1-2.1C46.6,15.9,47,15.8,46.7,15.9"></path>		<path class="st3" d="M74,60.3c0,0,0.1,0.1,0.1,0.2c0,0.1,0.1,0.1,0.1,0.2l0.5,1c0.3-0.1,0.1,0,0.3-0.2v-4.4   c0.3,0.2,2.1,2.7,3.4,1.1c0.9-1.1-0.2-2.2-1.7-2.5l-0.6-0.2l3.5-2.1l-1.5-4.9c0.6,0.4,1.1,0.6,1.8,0.9c1.8,0.4,2.7-1.8,1.1-2.5   c-0.9-0.4-1.5-0.1-2.4,0c0.6-1.1,2.3-2.3,2.7-3.4c-1.2-0.9-2.2-2.1-2.8-3.5c0.8,0.2,1.6,0.2,2.3,0.1c0.7-0.2,1.1-0.9,0.9-1.7   c-0.2-0.7-0.8-1-1.5-0.9c-1,0-1.2,0.5-2,0.7c0.4-1.4,1.2-2.5,1.5-4.1c-0.6,0.2-0.4,0-1.2,0.8c-0.6,0.7-2.2,2.7-2.7,2.9   c-1.5,0.4-7.1-0.2-7,0.6c0,0.4,0,0.5,0.6,0.6c1.3,0.2,3.4,0.1,4.2,0.5c-0.4,0.5-1.8,0.7-2.6,0.9c-0.6,0.2-2.1,0.4-2.1,1.1   c1,0.2,5.2-0.8,6.6-0.9c1.1-0.1,3.2,1.8,4.1,2.6c0.5,0.5,0.3,0,0.4,0.5c-2.9,1.6-2.9,2.1-5,1.5c-0.9-0.3-4.8-1.8-5.6-1.3   c0,0.8,0.5,0.7,1.9,1.4c0.7,0.3,1.9,0.6,2.3,1.3c-1,0-4.3-0.3-4.9,0.1c0.1,0.7,1.4,0.7,3,1c1.1,0.2,2.3,0.4,3.5,0.6   c1.1,0.2,0.9,0.4,2,2.1c0.5,0.7,1.2,1.8,1.6,2.5L78.6,53c-0.1,0.1-0.2,0.1-0.4,0.1l-2.5,0.5c-1.5,0.3-1.9-0.2-2.9-0.9   c-1.3-0.9-3.8-3.1-4.6-2.9v0.3c0.1,0.4,0.1,0.4,0.6,0.8l2.9,2.8c-0.9-0.2-1.7-0.4-2.5-0.8l-1.8-0.7c-0.7-0.1-0.3-0.2-0.7,0.1   c0.2,0.7,3.9,2.5,4.7,2.9c1.2,0.6,1.5,0.5,1.9,2C73.4,57.8,73.8,60,74,60.3"></path>		<path class="st4" d="M48.4,70.3c0.1,0.5,0.1,0.3-0.1,0.7l0.2,0.4l4-2.3c0,0.1-1.3,3.3,0.9,3.5c0.7,0.1,1.3-0.5,1.4-1.2l0,0   c0.2-1.2-0.3-1.4-0.5-2.2c1.3,0.5,2.6,1.2,3.6,2.1c0.3,0.3-0.1,0,0.3,0.3c0.8-0.4,2.2-2.8,3.1-3.4c-0.1,0.8,0,1.5,0.3,2.2   c0.4,0.6,1.1,0.9,1.8,0.7c1.9-0.8-0.4-3.5-0.4-3.5c0.8,0.1,1.6,0.2,2.4,0.3c1.1,0.2,1.5,0.4,2.1-0.1c-0.6-0.2-0.4,0.2-0.5-0.7   c0,0,0.1-0.9,0.1-1c0.1-0.6,0.1-1.1,0.2-1.8l-0.3,3c-0.9-0.3-1.8-0.7-2.6-1.3c-2.1-1.1-1.6-0.8-2.8-5.1c-0.5-1.7-0.6-2.8-1.4-2.8   c-0.6,0.7,0.4,4.1,0.3,5.2c-1.2-1.1-2-4.2-3.1-4.2c-0.1,0.9,1.7,4.6,2.1,5.6c0.7,1.7,0.6,1.1-0.1,2.8c-0.4,0.9-0.8,1.8-1.3,2.7   c-0.3-0.2-3.2-3-3.2-3.8c-0.1-1.5,0.6-5.6,0.2-6.9c-1-0.1-0.9,1.3-1.1,2.2c-0.1,0.9-0.4,1.9-0.6,2.8c-0.4-1.3-0.7-2.6-0.9-3.9   c-0.1-0.7,0-0.8-0.6-1.1l-0.1,0.3c-0.1,0.3,0-0.1-0.1,0.4c-0.1,0.7,0.5,6,0.3,6.7l-2.5,2.6C49.1,70,49.1,70.1,48.4,70.3"></path>		<path class="st5" d="M67.3,64.2c0,0.6-0.1,1.2-0.2,1.8c0,0.1-0.1,1-0.1,1c0.1,0.9-0.1,0.5,0.5,0.7c0.6-0.9,1.1-3.5,1.7-4.1   c0,0.1,1.1,3.4,2.9,2c0.6-0.5,0.6-1.4,0.1-1.9c-0.7-1-1.3-0.7-1.6-1.3l3.9-0.6l-0.5-1c0,0-0.1-0.1-0.1-0.2c0-0.1,0-0.1-0.1-0.2   c0,0.9,0.1,0.3-0.2,0.5c-1-0.1-2.2-0.3-3.3-0.5c-1.2-0.2-1.1-0.3-2.1-1.8c-0.6-0.9-1-1.4-1.6-2.3c-0.4-0.5-1.2-2-1.8-1.8   c-0.1,0.1-0.6-0.1,0.1,1.1c0.2,0.4,0.4,0.7,0.6,1.2c0.4,0.8,0.8,1.6,1.2,2.4c-0.7-0.4-1.4-0.9-2-1.5c-0.6-0.5-1.2-1.4-2.2-1.4   c0.1,0.9,3.4,4.3,4.2,5.1C67.7,62.2,67.3,62.9,67.3,64.2"></path>		<path class="st6" d="M39.5,67.2c-0.2,0.3,0.1,0.2-0.4,0.3v0.7c1.5,0.1,3.1-0.7,4.6-0.8c-0.2,0.8-2.2,2.3-0.4,3.5   c0.6,0.4,1.3,0.2,1.7-0.3c0,0,0-0.1,0.1-0.1c0.5-0.7,0.6-1.6,0.4-2.4c0.8,0.4,2,2.2,3,3c0.2-0.4,0.2-0.2,0.1-0.7   c-0.3-1-0.6-1.9-1.1-2.8c-0.8-2-0.8-1.4,1.1-5.7c0.4-0.8,1.2-2.2,0.7-2.9c-0.9,0-1.9,2.7-3,4.2c-0.4-0.8,1-4.3,0.3-5.1   c-0.7,0.2-0.8,1.4-1.2,2.8c-1.3,4.6-0.7,3.9-3,5.1C41.3,66.6,40.4,67,39.5,67.2z"></path>		<path class="st7" d="M32.3,60.1c-0.2,0.2,0-0.2-0.2,0.4l-0.3,1c-0.1,0-0.4-0.2-0.4-0.3V62l4.5,0.6c-0.2,0.5-1,0.6-1.4,1.2   c-1.1,1.5,0.5,3.4,1.9,1.9c0.8-0.8,0.5-1.2,1-1.8l1.7,3.6c0.5-0.1,0.2,0.1,0.4-0.3c0-1.2,0-2.4-0.2-3.6c-0.1-1.7,0.5-1.8,1.2-2.7   l3.2-3.6c0.3-0.4,0.4-0.2,0.1-0.6c-0.5-0.6-1.2,0.3-2.2,1.2c-0.7,0.6-1.4,1.2-2.1,1.7c0.3-1.3,2-3.2,2.1-4.7   c-0.8,0.1-0.8,0.3-1.2,0.9L38,59.1c-0.8,1.1-0.6,1.4-2.2,1.6c-1.3,0.2-2.5,0.3-3.7,0.5L32.3,60.1L32.3,60.1z"></path>		<path class="st8" d="M31.5,26.3l0.5,1.3l-0.2-0.5c1.3-0.1,2.5-0.1,3.8,0c1.2,0.1,1.7,0.9,2.3,1.6c0.5,0.6,2.9,3.7,3.8,3.7   c0.4-1.2-1.7-2.8-2.4-4.6c1.4,0.4,3,2.3,4.5,2.5c-0.1-0.6,0.1-0.3-0.8-1.1c-0.4-0.3-0.6-0.5-0.9-0.8c-0.7-0.6-1.3-1.1-2-1.7   c-2.4-2-1.5-1.6-1.8-5.8c0.2-0.2,0-0.1,0.3-0.2c-0.5-0.3-0.3,0.1-0.4-0.7c-0.3-0.6,0-0.3-0.6-0.5l-0.8,3.3   c-0.1,0.4-0.2,0.8-0.4,1.1c0,0-1.4-3.1-3-1.6c-0.5,0.6-0.5,1.4,0.1,2c0.5,0.6,0.9,0.6,1.8,0.9c-0.1,0.5,0.1,0.2-0.7,0.4   c-0.3,0.1-0.6,0.2-1,0.3C32.9,26,32.2,26.2,31.5,26.3"></path>		<path class="st9" d="M38.2,19.9c0,0.7-0.1,0.4,0.4,0.7c1,0.4,1.8,0.8,2.8,1.2c2.1,0.8,1.9,1.4,3.1,4.8c0.5,1.6,0.7,2.5,1.5,2.6   c0.4-1-0.8-3.8-0.8-5.2c1,0.5,2.3,3.9,3.4,4c0.2-0.6-2.1-4.6-2.4-5.3c-0.8-1.7-0.8-1.2-0.2-2.9c0.4-1,0.8-2,1-3l0.1-0.6l-0.4-0.3   c-0.9,0.7-1.9,3.1-2.8,3.4c0.1-4.6-4.6-2.7-2.3,0c0.5,0.5,0.4,0.1,0.6,0.9L38.2,19.9L38.2,19.9z"></path>		<path class="st10" d="M73.8,26.3c-0.4,0.9-0.7,1.8-1,2.7c-0.5,1.6-2.1,1.9-4.7,3c-0.5,0.2-0.8,0.4-1.3,0.6c-0.7,0.3-1,0.3-0.8,0.9   h0.1c0.1,0.3,2.2-0.4,2.3-0.5c0.8-0.3,1.6-0.5,2.5-0.6c-0.5,1.2-3.6,2.3-3.7,3.6c0.9,0.1,2.1-0.9,2.8-1.4c4-2.4,3.1-2.4,5.8-1.6   c1,0.3,2.5,1.2,3.4,0.7c-0.3-1.2-3.4-1.7-3.7-2.8c0.7,0.1,1.5-0.1,2.1-0.5s0.9-1.2,0.5-1.8c-0.4-0.6-1.2-0.9-1.8-0.5   c0,0-0.1,0-0.1,0.1c-0.6,0.3-1,0.8-1.4,1.3c-0.2,0.1,0.3,0.5-0.3,0.1v-4.2C74,25.6,74.3,25.8,73.8,26.3"></path>		<path class="st11" d="M86.8,47.3c0.7-0.2,1.4,0.3,1.6,1s-0.3,1.4-1,1.6c-0.7,0.2-1.4-0.3-1.6-1c0-0.1,0-0.2,0-0.3   C85.7,47.9,86.2,47.3,86.8,47.3z"></path>		<path class="st12" d="M86.8,42.6c-0.7-0.3-0.2-1.6-2-2.2c0.2,1.7,0.6,2.1,1.9,2.7v2.5c-0.4-0.2-0.3-0.5-0.6-0.9   c-1.9-2.3-2.8-0.3-1.2,0.5c0.7,0.3,1.4,0.3,1.8,0.9c0,0.4,0,0.8,0,1.2H87c-0.1-0.5,0-0.9,0.1-1.4c1.1-0.6,3.1-0.1,2.6-1.8   c-0.5-0.2-1-0.2-1.5,0.1c-0.4,0.4-0.8,0.8-1.2,1.2v-1.2l0.1-0.1l0.4-0.2c0.2-0.1,0.2-0.1,0.5-0.2c0.8-0.5,1.4-1.4,1.6-2.3   c-2,0.3-1.8,2.1-2.6,2.5c0-0.9,0-1.7,0.2-2.6c1,0,1.8-0.3,2-1.2c-0.7,0.1-1.3,0.3-1.8,0.8c0-0.3,0.4-0.9,0.4-1.6   c-0.9,0.5-0.3,1.2-0.7,1.9L87,41.6C86.8,42.2,87,42.4,86.8,42.6"></path>		<path class="st13" d="M84.4,50.2l0.4-0.5l0.9,0.1l0.6-1l0.2-0.1l-0.7,1.2l-0.1,0.8l-0.1-0.6h-0.9L84.4,50.2z"></path>		<path class="st14" d="M21.2,34.2c-0.5-0.2-0.9-0.5-1.1-1c-0.1-0.4-0.1-0.8,0.1-1.1c0.1-0.4,0.5-0.7,0.8-0.9   c0.4-0.2,0.9-0.1,1.3,0.1c0.3,0.1,0.6,0.3,0.9,0.6c0.2,0.2,0.3,0.5,0.3,0.8s0,0.6-0.1,0.8c-0.1,0.4-0.5,0.7-0.9,0.9   C22.1,34.5,21.6,34.4,21.2,34.2 M23.6,30.2c-0.1-0.1-0.3-0.2-0.4-0.3l-1.5-1.3L22,28l2,0.4l0.5,0.1L24,28.1l-1.5-1.3l0.3-0.6   l2.6,2.4l-0.3,0.5l-2-0.4l-0.4-0.1l1.9,1.5l-0.3,0.6l-3.5-0.5l0.3-0.6l2,0.3L23.6,30.2L23.6,30.2z M22.9,25.3l-0.6-0.4l0.4-0.5   l0.6,0.4L22.9,25.3z M26.1,27.4l-2.8-1.8l0.4-0.5l2.8,1.8L26.1,27.4z M24.7,24c-0.1-0.4,0-0.8,0.2-1.1c0.1-0.2,0.3-0.3,0.4-0.4   s0.3-0.1,0.5-0.2c0.2,0,0.3,0,0.5,0.1c0.2,0.1,0.3,0.2,0.5,0.3l1.7,1.2L28,24.5l-1.7-1.2c-0.1-0.1-0.3-0.2-0.4-0.2s-0.2,0-0.3,0   c-0.1,0.1-0.2,0.1-0.3,0.2c-0.1,0.2-0.2,0.4-0.2,0.6c0,0.3,0.3,0.5,0.5,0.7l1.5,1.1l-0.4,0.5l-2.7-2l0.3-0.5L24.7,24L24.7,24z    M30.2,21.5c0,0.3-0.1,0.6-0.4,0.8c-0.3,0.3-0.7,0.5-1.1,0.4s-0.8-0.3-1.1-0.6c-0.2-0.2-0.4-0.5-0.5-0.7C27,21.1,27,20.9,27,20.6   c0.1-0.3,0.2-0.5,0.4-0.7c0.2-0.2,0.6-0.4,0.9-0.4l-0.2-0.2l0.4-0.4l2,2c0.3,0.3,0.5,0.6,0.7,0.9c0.1,0.2,0.1,0.5,0,0.7   c-0.1,0.3-0.3,0.5-0.5,0.7c-0.2,0.3-0.5,0.4-0.9,0.5c-0.3,0-0.6-0.1-0.8-0.3l0,0l0.5-0.4l0,0c0.1,0.1,0.2,0.1,0.4,0.1   c0.2,0,0.3-0.1,0.5-0.3c0.1-0.1,0.2-0.3,0.3-0.5c0-0.2,0-0.3-0.1-0.5C30.4,21.7,30.3,21.6,30.2,21.5L30.2,21.5z M31.1,15.8   L30,16.7l-0.4-0.5l2.8-2.3l0.4,0.5l-1.1,0.9l2.5,3.1l-0.5,0.4L31.1,15.8L31.1,15.8z M34.6,14.3c0.1-0.3,0.3-0.6,0.6-0.8   c0.2-0.1,0.4-0.2,0.6-0.2s0.4,0,0.6,0.2s0.4,0.4,0.5,0.6l1.1,1.8l-0.6,0.3l-1.1-1.8c-0.1-0.2-0.2-0.3-0.4-0.4   c-0.2,0-0.3,0-0.5,0.1c-0.1,0.1-0.2,0.2-0.3,0.3C35,14.6,35,14.7,35,14.9s0.1,0.4,0.2,0.5l1,1.6l-0.6,0.3l-2.4-3.9l0.6-0.3   L34.6,14.3z M38.4,13.9c0.1,0.2,0.3,0.4,0.6,0.5c0.2,0.1,0.5,0.1,0.7,0s0.3-0.2,0.4-0.3c0.1-0.2,0.1-0.4,0.1-0.6l0,0l0.6-0.2v0.1   c0.1,0.3,0,0.7-0.1,0.9c-0.4,0.7-1.3,1-2,0.7c-0.4-0.2-0.7-0.5-0.9-1c-0.2-0.4-0.3-0.9-0.1-1.4c0.3-0.8,1.2-1.2,2-0.9l0,0   c0.4,0.2,0.8,0.6,0.9,1c0,0,0,0.1,0.1,0.1l0,0L38.4,13.9L38.4,13.9z M42.8,12.3l0.6-0.3l0,0c0.1,0.2,0.2,0.3,0.4,0.4   c0.2,0.1,0.3,0.1,0.5,0.1s0.5-0.1,0.7-0.2c0.2-0.1,0.3-0.2,0.5-0.3c0.1-0.1,0.2-0.2,0.2-0.4c0-0.1,0-0.3,0-0.4   c0-0.1-0.1-0.2-0.2-0.3C45.3,11.1,45.1,11,45,11c-0.3,0-0.5,0.1-0.8,0.1c-0.3,0.1-0.6,0.1-0.9,0.1c-0.2,0-0.4-0.1-0.6-0.2   c-0.2-0.1-0.3-0.3-0.4-0.5c-0.1-0.2-0.1-0.5-0.1-0.7c0-0.3,0.2-0.5,0.4-0.7s0.4-0.4,0.7-0.5c0.3-0.1,0.6-0.2,0.9-0.2   s0.5,0.1,0.8,0.2c0.2,0.1,0.4,0.3,0.5,0.6l0,0l-0.6,0.3l0,0c-0.1-0.2-0.3-0.4-0.5-0.4c-0.3,0-0.5,0-0.8,0.1   c-0.3,0.1-0.5,0.3-0.6,0.5c-0.1,0.1-0.1,0.3,0,0.5c0.1,0.1,0.2,0.2,0.3,0.3c0.3,0,0.6,0,0.9-0.1c0.3-0.1,0.7-0.1,1-0.1   c0.3,0,0.5,0.1,0.7,0.2c0.1,0.2,0.3,0.4,0.3,0.6c0.1,0.2,0.1,0.5,0.1,0.7c0,0.3-0.2,0.5-0.4,0.7s-0.5,0.4-0.7,0.5   c-0.3,0.2-0.7,0.2-1,0.2C43.6,13.3,43.1,12.9,42.8,12.3L42.8,12.3L42.8,12.3z M47.7,10.9c0.1,0.3,0.2,0.5,0.4,0.7   c0.2,0.1,0.4,0.2,0.7,0.2c0.2,0,0.3-0.1,0.5-0.2c0.1-0.2,0.2-0.3,0.2-0.5l0,0h0.7v0.1c0,0.3-0.2,0.6-0.4,0.9   c-0.6,0.5-1.5,0.6-2.1,0.2c-0.4-0.6-0.7-1-0.7-1.4c-0.1-0.5,0-1,0.2-1.4c0.2-0.4,0.6-0.6,1-0.6c0.4-0.1,0.8,0,1.2,0.3   c0.3,0.2,0.6,0.7,0.6,1.1c0,0.1,0,0.1,0,0.2v0.1L47.7,10.9L47.7,10.9z M51.3,10.5c0,0.3,0.1,0.5,0.3,0.7c0.2,0.2,0.4,0.2,0.7,0.2   c0.2,0,0.3-0.1,0.5-0.2c0.1,0,0.2-0.2,0.2-0.4l0,0l0.7,0.1V11c-0.1,0.3-0.2,0.6-0.5,0.8s-0.6,0.3-0.9,0.3c-0.4,0-0.9-0.1-1.2-0.4   c-0.3-0.3-0.5-0.8-0.5-1.2c0-0.6,0.1-1,0.4-1.4c0.3-0.3,0.7-0.5,1.1-0.5c0.4,0,0.8,0.1,1.1,0.4s0.5,0.8,0.5,1.3v0.2H51.3   L51.3,10.5z M56.5,11.8c-0.2,0.2-0.6,0.3-0.9,0.3c-0.3,0-0.5-0.1-0.7-0.3s-0.4-0.4-0.5-0.7s-0.1-0.6-0.1-0.9s0.1-0.6,0.2-0.9   c0.2-0.5,0.8-0.8,1.3-0.7c0.2,0,0.4,0.1,0.5,0.2c0.1,0.1,0.2,0.2,0.3,0.3l0.1-1.5l0.7,0.1L57,12.3l-0.5-0.2V11.8L56.5,11.8z    M57.9,11l0.7,0.1l0,0c0,0.2,0,0.4,0.1,0.5c0.3,0.3,0.7,0.4,1,0.3c0.1,0,0.2-0.1,0.2-0.3c0-0.1,0-0.2-0.1-0.3s-0.3-0.2-0.5-0.3   c-0.3-0.1-0.5-0.3-0.7-0.5c-0.1-0.1-0.2-0.3-0.3-0.4c0-0.2,0-0.3,0-0.5c0.2-0.2,0.4-0.4,0.7-0.5c0.1,0,0.3-0.1,0.4-0.1   c0.2,0,0.3,0,0.5,0.1c0.2,0.1,0.4,0.2,0.6,0.3c0.2,0.1,0.3,0.3,0.3,0.4c0.1,0.2,0.1,0.4,0.1,0.6v0.1l-0.6-0.1v-0.1   c0-0.1,0-0.3-0.1-0.4c-0.1-0.1-0.3-0.2-0.4-0.2c-0.2-0.1-0.3-0.1-0.5,0c-0.1,0-0.2,0.1-0.2,0.2c0,0.1,0,0.1,0,0.2   c0,0.1,0.1,0.1,0.2,0.2c0.1,0.1,0.3,0.2,0.4,0.3c0.3,0.1,0.5,0.3,0.7,0.5c0.1,0.1,0.2,0.2,0.3,0.4s0.1,0.4,0,0.5   c-0.1,0.2-0.2,0.4-0.3,0.5c-0.2,0.1-0.4,0.2-0.6,0.2c-0.2,0-0.5,0-0.7-0.1c-0.3-0.1-0.7-0.3-0.9-0.5C58,11.7,57.9,11.4,57.9,11   L57.9,11L57.9,11z M62.7,11.8c0.1-0.5,0.4-1,0.8-1.2c0.3-0.2,0.7-0.2,1.1-0.1c0.4,0.1,0.8,0.3,1,0.7c0.2,0.4,0.3,0.9,0.1,1.3   c-0.1,0.3-0.2,0.7-0.4,0.9c-0.2,0.2-0.4,0.4-0.7,0.4c-0.3,0.1-0.6,0.1-0.8,0c-0.4-0.1-0.8-0.3-1-0.7   C62.6,12.7,62.6,12.2,62.7,11.8L62.7,11.8z M67.6,12.3L67.2,12l0.3-0.4l0.4,0.3l0.1-0.3c0.1-0.1,0.2-0.3,0.3-0.4   c0.2-0.1,0.4-0.1,0.5-0.1c0.2,0,0.4,0.1,0.6,0.2c0.1,0.1,0.3,0.2,0.4,0.3l0,0l-0.4,0.5l0,0c-0.1-0.1-0.2-0.1-0.2-0.2   c-0.1-0.1-0.2-0.1-0.3-0.1S68.7,12,68.6,12l-0.1,0.2l0.5,0.4L68.7,13l-0.5-0.4l-1.6,2.3l-0.5-0.4L67.6,12.3L67.6,12.3z M72.4,17.3   l0.5-0.6l-1-0.8l0.4-0.5l1.6,1.3l-1.1,1.4l0,0c-0.4,0-0.7-0.1-1.1-0.2c-0.3-0.1-0.6-0.3-0.9-0.5c-0.3-0.3-0.6-0.6-0.8-1   c-0.2-0.4-0.2-0.8-0.1-1.2c0.1-0.4,0.3-0.8,0.5-1.1c0.3-0.3,0.6-0.6,1-0.8s0.8-0.2,1.2-0.2c0.4,0.1,0.8,0.3,1.1,0.5   c0.2,0.2,0.4,0.4,0.6,0.7c0.1,0.2,0.2,0.5,0.2,0.8s-0.1,0.6-0.2,0.8l0,0l-0.6-0.3l0,0c0.1-0.2,0.1-0.4,0.1-0.6   c0-0.2,0-0.3-0.1-0.5s-0.2-0.3-0.4-0.5c-0.2-0.2-0.4-0.3-0.6-0.3c-0.2-0.1-0.4-0.1-0.6,0c-0.2,0-0.3,0.1-0.5,0.2   c-0.3,0.1-0.5,0.3-0.7,0.6c-0.2,0.3-0.4,0.6-0.5,0.9c-0.1,0.3,0,0.6,0.1,0.8c0.2,0.5,0.7,0.9,1.2,1C72,17.2,72.2,17.3,72.4,17.3   L72.4,17.3z M75.3,16.9c0.1,0,0.3-0.1,0.4-0.1c0.1,0,0.3,0.1,0.4,0.2c0.2,0.1,0.3,0.3,0.3,0.5l0,0l-0.6,0.3v-0.1   c0-0.1-0.1-0.2-0.2-0.3s-0.2-0.1-0.3-0.1s-0.2,0-0.3,0.1c-0.2,0.1-0.3,0.3-0.5,0.4l-1.1,1.4l-0.5-0.4l2.1-2.6l0.5,0.4L75.3,16.9   L75.3,16.9z M75.9,19.5c-0.2,0.2-0.3,0.5-0.3,0.7s0.1,0.5,0.3,0.6c0.1,0.1,0.3,0.2,0.5,0.2c0.2,0,0.4,0,0.6-0.1l0,0l0.4,0.5h-0.1   c-0.3,0.2-0.6,0.2-0.9,0.2c-0.3-0.1-0.7-0.2-0.9-0.5c-0.3-0.2-0.5-0.6-0.5-1c0-0.5,0.2-0.9,0.6-1.2c0.3-0.4,0.8-0.6,1.2-0.6   c0.9,0,1.6,0.7,1.6,1.6c0,0.5-0.3,0.9-0.6,1.2h-0.1l0,0L75.9,19.5L75.9,19.5z M79.9,22.8C79.9,22.8,79.9,22.7,79.9,22.8   c0.2-0.2,0.3-0.3,0.3-0.5s-0.1-0.4-0.3-0.6c-0.1-0.1-0.3-0.3-0.5-0.3s-0.4,0-0.5,0.1l0,0L78.5,21l0,0c0.2-0.1,0.4-0.2,0.6-0.2   s0.4,0,0.6,0.1s0.4,0.3,0.6,0.5s0.3,0.4,0.4,0.6c0.1,0.1,0.1,0.3,0.1,0.5c0,0.1-0.1,0.3-0.2,0.4s-0.2,0.3-0.4,0.4l-0.5,0.5   c-0.2,0.2-0.5,0.4-0.7,0.7c-0.1,0.1-0.1,0.2-0.2,0.4V25l-0.5-0.5l0,0c0.1-0.1,0.1-0.2,0.2-0.3c-0.2,0-0.4-0.1-0.6-0.2   s-0.4-0.2-0.5-0.4c-0.2-0.2-0.4-0.5-0.4-0.8s0.1-0.5,0.3-0.7c0.1-0.1,0.3-0.2,0.4-0.2s0.3,0,0.5,0c0.1,0,0.3,0.1,0.4,0.2   s0.3,0.2,0.4,0.3C79.4,22.4,79.6,22.6,79.9,22.8L79.9,22.8z M81.3,23.8l-0.2-0.3l0.4-0.3l0.2,0.3l0.6-0.5l0.7,0.3L82.1,24l0.3,0.4   L82,24.7l-0.3-0.4l-1.5,1.1c-0.1,0.1-0.2,0.1-0.2,0.2v0.1c0,0.1,0,0.1,0.1,0.2c0,0.1,0.1,0.1,0.2,0.2l0,0l-0.4,0.4l0,0   c-0.1-0.1-0.2-0.2-0.3-0.3c-0.1-0.1-0.2-0.3-0.2-0.5c0-0.1,0-0.3,0.1-0.4c0.1-0.2,0.3-0.3,0.5-0.5L81.3,23.8L81.3,23.8z    M82.7,25.6c0.4,0,0.7,0.2,0.9,0.5c0.1,0.2,0.2,0.3,0.2,0.5s0,0.3,0,0.5c-0.1,0.1-0.1,0.3-0.2,0.4s-0.3,0.2-0.4,0.3l-1.7,1.3   l-0.4-0.5l1.7-1.2c0.1-0.1,0.3-0.2,0.4-0.3c0.1-0.1,0.1-0.2,0.1-0.3c0-0.1-0.1-0.2-0.1-0.3c-0.2-0.3-0.4-0.4-0.6-0.4   c-0.3,0-0.6,0.1-0.8,0.3l-1.5,1.1L80,26.9l2.7-2l0.3,0.5L82.7,25.6L82.7,25.6z M83.3,29.5c-0.2,0.1-0.5,0.3-0.6,0.5   s-0.1,0.5,0,0.7s0.2,0.3,0.3,0.4c0.2,0.1,0.4,0.1,0.6,0.1l0,0l0.2,0.7h-0.1c-0.3,0.1-0.7,0-0.9-0.2c-0.3-0.2-0.5-0.5-0.6-0.8   c-0.2-0.4-0.2-0.9,0-1.3s0.6-0.7,1-0.9c0.4-0.2,0.9-0.2,1.4-0.1c0.8,0.4,1.2,1.3,0.8,2.1c-0.2,0.4-0.6,0.7-1,0.9   c0,0-0.1,0-0.1,0.1l0,0L83.3,29.5L83.3,29.5z M83.8,32.2l0.3,0.6l0,0c-0.2,0.1-0.3,0.2-0.3,0.4c-0.1,0.2,0,0.4,0.1,0.6   s0.2,0.3,0.3,0.4c0.1,0.1,0.2,0.1,0.4,0c0.1,0,0.2-0.1,0.2-0.2c0-0.2,0-0.4,0-0.6c0-0.3-0.1-0.6-0.1-0.9s0.2-0.6,0.5-0.8   c0.1-0.1,0.3-0.1,0.4-0.1s0.3,0.1,0.4,0.1c0.1,0.1,0.2,0.2,0.3,0.3c0.1,0.1,0.2,0.3,0.2,0.4c0.1,0.2,0.1,0.4,0.2,0.7   c0,0.2,0,0.4-0.1,0.5c-0.1,0.2-0.2,0.3-0.4,0.4l0,0l-0.3-0.6l0,0c0.1-0.1,0.2-0.2,0.3-0.3c0-0.2,0-0.3-0.1-0.5s-0.2-0.3-0.3-0.4   c-0.1-0.1-0.2-0.1-0.3,0c-0.1,0-0.1,0.1-0.1,0.1c0,0.1-0.1,0.1-0.1,0.2c0,0.2,0,0.3,0.1,0.5c0,0.3,0.1,0.6,0.1,0.9   c0,0.2,0,0.3-0.1,0.5c-0.1,0.1-0.2,0.3-0.4,0.3c-0.2,0.1-0.4,0.1-0.6,0c-0.2,0-0.4-0.1-0.5-0.3c-0.2-0.2-0.3-0.4-0.4-0.6   c-0.2-0.3-0.2-0.7-0.1-1C83.2,32.7,83.5,32.4,83.8,32.2L83.8,32.2L83.8,32.2z M84.8,35.3l0.3,0.6l0,0c-0.2,0.1-0.3,0.2-0.4,0.4   c-0.1,0.4,0,0.8,0.3,1.1c0.1,0.1,0.2,0.1,0.4,0.1c0.1,0,0.2-0.1,0.2-0.2c0-0.2,0-0.4,0-0.6c0-0.3,0-0.6,0-0.9   c0-0.2,0.1-0.3,0.2-0.5c0.2-0.2,0.5-0.3,0.9-0.3c0.1,0,0.3,0.1,0.4,0.2s0.2,0.2,0.3,0.3c0.1,0.1,0.2,0.3,0.2,0.5   c0.1,0.2,0.1,0.5,0.1,0.7s-0.1,0.4-0.2,0.5s-0.3,0.3-0.5,0.3l0,0l-0.3-0.6l0,0c0.1-0.1,0.2-0.2,0.3-0.3c0.1-0.2,0.1-0.3,0-0.5   c0-0.2-0.1-0.3-0.2-0.5c-0.1-0.1-0.2-0.1-0.3-0.1c-0.1,0-0.1,0.1-0.1,0.1c0,0.1-0.1,0.1-0.1,0.2c0,0.2,0,0.3,0,0.5   c0,0.3,0,0.6,0,0.9c0,0.2-0.1,0.3-0.2,0.5c-0.1,0.1-0.3,0.2-0.4,0.3c-0.2,0.1-0.4,0-0.6,0c-0.2-0.1-0.4-0.2-0.5-0.4   s-0.3-0.4-0.3-0.6c-0.1-0.3-0.1-0.7,0-1C84.2,35.7,84.5,35.5,84.8,35.3L84.8,35.3L84.8,35.3z M21.4,33.6c0.3,0.1,0.6,0.2,0.9,0.1   c0.2-0.1,0.4-0.3,0.5-0.5s0.1-0.5,0-0.7c-0.2-0.3-0.4-0.5-0.8-0.6c-0.3-0.1-0.6-0.2-0.9-0.1c-0.1,0.1-0.3,0.3-0.4,0.5   c-0.1,0.2-0.1,0.5,0,0.7C20.9,33.3,21.1,33.5,21.4,33.6L21.4,33.6z M28,21.6c0.2,0.2,0.5,0.4,0.8,0.5c0.4,0,0.8-0.3,0.8-0.7v-0.1   c-0.1-0.3-0.2-0.6-0.5-0.8c-0.2-0.2-0.5-0.4-0.8-0.4c-0.2,0-0.5,0.1-0.6,0.2c-0.2,0.2-0.2,0.4-0.2,0.6   C27.7,21.2,27.8,21.4,28,21.6z M38.2,13.4l1.5-0.7c-0.1-0.2-0.2-0.3-0.4-0.4c-0.2-0.1-0.5-0.1-0.7,0s-0.4,0.3-0.5,0.5   C38.2,12.9,38.2,13.2,38.2,13.4L38.2,13.4z M47.6,10.4l1.7-0.3c0-0.2-0.1-0.4-0.3-0.5c-0.2-0.2-0.4-0.2-0.7-0.2   c-0.2,0-0.4,0.2-0.6,0.3C47.7,9.9,47.6,10.1,47.6,10.4z M51.3,10L53,9.9c0-0.2-0.1-0.4-0.2-0.5c-0.3-0.3-0.9-0.4-1.2,0l0,0   C51.4,9.5,51.3,9.8,51.3,10L51.3,10z M55,10.3c0,0.3,0,0.6,0.2,0.9c0.1,0.2,0.3,0.3,0.6,0.3c0.2,0,0.4-0.1,0.6-0.2   c0.2-0.2,0.3-0.5,0.3-0.8c0.1-0.3,0-0.7-0.2-1s-0.7-0.5-1-0.2c-0.1,0-0.1,0.1-0.1,0.1C55.1,9.7,55,10,55,10.3L55,10.3z M63.4,11.9   c-0.1,0.3-0.1,0.6,0,0.9c0.1,0.2,0.3,0.4,0.6,0.4c0.2,0.1,0.5,0,0.7-0.1c0.2-0.2,0.4-0.5,0.5-0.8s0.1-0.6-0.1-0.9   C65,11.2,64.8,11,64.5,11c-0.2-0.1-0.5,0-0.7,0.1C63.6,11.3,63.4,11.6,63.4,11.9L63.4,11.9z M76.3,19.1l1.2,1.2   c0.1-0.1,0.2-0.3,0.2-0.5s-0.1-0.5-0.2-0.7c-0.2-0.2-0.4-0.3-0.6-0.3C76.7,18.9,76.5,18.9,76.3,19.1L76.3,19.1z M79.5,23.1   c-0.2-0.1-0.5-0.3-0.7-0.5c-0.1-0.1-0.3-0.2-0.4-0.3c-0.1,0-0.2-0.1-0.2,0c-0.1,0-0.2,0.1-0.2,0.1c-0.1,0.1-0.1,0.2-0.1,0.3   c0,0.2,0.1,0.3,0.2,0.4s0.3,0.2,0.5,0.3c0.2,0.1,0.3,0.1,0.5,0C79.1,23.4,79.3,23.3,79.5,23.1L79.5,23.1z M83.8,29.3l0.6,1.6   c0.2-0.1,0.3-0.2,0.4-0.4c0.1-0.2,0.1-0.5,0.1-0.7c-0.1-0.2-0.2-0.4-0.4-0.5C84.3,29.3,84,29.2,83.8,29.3L83.8,29.3z M20.5,38.6   l0.1-0.7h0.1c0.2,0,0.4,0,0.6-0.1s0.3-0.2,0.4-0.4c0.1-0.2,0.2-0.4,0.3-0.6c0-0.2,0-0.4,0-0.6c0-0.2-0.1-0.3-0.2-0.4   c-0.1-0.1-0.2-0.2-0.3-0.2s-0.2,0-0.4,0c-0.1,0.1-0.2,0.2-0.3,0.3c-0.1,0.2-0.3,0.5-0.4,0.7c-0.2,0.5-0.4,0.8-0.6,1   c-0.1,0.2-0.3,0.3-0.5,0.4c-0.2,0.1-0.4,0.1-0.6,0.1c-0.2,0-0.4-0.2-0.6-0.3c-0.2-0.2-0.3-0.4-0.3-0.7c-0.1-0.3-0.1-0.6,0-0.9   c0.1-0.3,0.2-0.6,0.3-0.8c0.1-0.2,0.4-0.4,0.6-0.5c0.2-0.1,0.5-0.1,0.8-0.1h0.1l-0.1,0.7h-0.1c-0.2,0-0.5,0-0.7,0.2   c-0.2,0.2-0.3,0.4-0.3,0.7c-0.1,0.3-0.1,0.5,0,0.8c0.1,0.2,0.2,0.3,0.4,0.3c0.1,0,0.3,0,0.4-0.1c0.2-0.2,0.4-0.5,0.5-0.8   c0.1-0.3,0.3-0.6,0.5-0.9c0.1-0.2,0.3-0.4,0.6-0.5c0.2-0.1,0.5-0.1,0.7-0.1c0.2,0,0.5,0.2,0.6,0.3c0.2,0.2,0.3,0.4,0.4,0.7   s0.1,0.6,0,0.9c-0.1,0.4-0.2,0.7-0.4,1c-0.2,0.2-0.4,0.4-0.7,0.5C21.1,38.6,20.8,38.7,20.5,38.6L20.5,38.6L20.5,38.6z"></path>		<path class="st11" d="M19.9,47.3c0.7,0.2,1.1,0.9,1,1.6c-0.1,0.5-0.5,0.9-1,1c-0.7-0.2-1.1-0.9-1-1.6   C19.1,47.8,19.5,47.4,19.9,47.3z"></path>		<path class="st12" d="M19.9,42.6c-0.7-0.3-0.2-1.6-2-2.2c0.2,1.7,0.6,2.2,1.9,2.7v2.5c-0.4-0.2-0.3-0.5-0.6-0.9   c-1.9-2.3-2.8-0.3-1.2,0.5c0.7,0.3,1.4,0.3,1.8,0.9c0,0.4,0,0.8,0,1.2h0.3c-0.1-0.5,0-0.9,0.1-1.4c1.1-0.6,3.1-0.1,2.6-1.8   c-0.5-0.2-1-0.2-1.5,0.1c-0.4,0.4-0.8,0.8-1.2,1.2v-1.2l0.1-0.1h0.5c0.2-0.1,0.2-0.1,0.5-0.2c0.8-0.5,1.4-1.4,1.6-2.3   c-2,0.3-1.8,2.1-2.6,2.5c0-0.9,0-1.7,0.2-2.6c1,0,1.8-0.3,2-1.2c-0.7,0.1-1.4,0.4-1.9,0.8c0-0.3,0.4-0.9,0.4-1.6   c-0.9,0.6-0.3,1.2-0.7,1.9l-0.1,0.4C19.9,42.2,20.1,42.4,19.9,42.6"></path>		<path class="st13" d="M17.9,50.2l0.3-0.5l0.7,0.1l0.5-1l0.2-0.1L19,49.9v0.8l-0.1-0.6h-0.8L17.9,50.2z"></path>		<path class="st15" d="M63.3,47.6l0.2,0.1c0,0.2,0,0.4-0.1,0.7c0,0.2,0,0.5,0,0.9V52c0,0.3,0,0.7,0.1,1c0.1,0.1,0.3,0.2,0.5,0.2   v0.3c-0.2,0-0.4,0-0.6-0.1c-0.2,0-0.4-0.1-0.7-0.1c-0.2,0.1-0.4,0.1-0.6,0.1c-0.2,0-0.4,0.1-0.6,0.1v-0.3c0.2,0,0.4-0.1,0.5-0.2   c0.1-0.3,0.2-0.6,0.1-1v-2.8c0-0.3,0-0.6-0.1-0.8c-0.1-0.1-0.3-0.2-0.4-0.2h-0.1v-0.3c0.2,0,0.3,0,0.4,0c0.1,0,0.3,0,0.4,0h0.2   c0.1,0,0.2,0,0.3,0c0.1-0.1,0.1-0.1,0.2-0.2C63.1,47.7,63.2,47.7,63.3,47.6 M60.7,51.2V52c0,0.2,0,0.5,0.1,0.7   c0,0.1,0.1,0.2,0.2,0.2h0.1h0.1l0.1,0.2c-0.1,0.2-0.3,0.3-0.5,0.4c-0.2,0.1-0.3,0.1-0.5,0.1s-0.4,0-0.5-0.2   c-0.1-0.1-0.2-0.3-0.3-0.5c-0.1,0.2-0.3,0.4-0.6,0.5s-0.6,0.2-0.8,0.2c-0.3,0-0.6-0.1-0.8-0.2c-0.2-0.3-0.3-0.6-0.3-0.8   c0-0.3,0.1-0.5,0.4-0.7c0.4-0.2,0.8-0.4,1.3-0.4c0.2,0,0.5-0.1,0.7-0.2c0.1-0.1,0.1-0.2,0.1-0.4c0-0.3,0-0.5-0.1-0.7   C59.3,50.1,59.2,50,59,50c-0.3,0-0.5,0.2-0.5,0.5c0,0,0,0,0,0.1s0,0.1,0,0.2c0,0.1,0,0.1,0.1,0.2c-0.1,0-0.2,0.1-0.3,0.1   s-0.2,0-0.3,0s-0.3,0-0.4-0.1c-0.1-0.1-0.1-0.2-0.1-0.3c0-0.3,0.2-0.6,0.5-0.7c0.4-0.2,0.8-0.3,1.2-0.3c0.7-0.1,1.5,0.3,1.6,1.1   C60.7,50.9,60.7,51.1,60.7,51.2z M59.4,51.6L59.4,51.6c-0.7,0.2-1.1,0.5-1.1,0.8c0,0.1,0,0.3,0.1,0.4c0.1,0.1,0.2,0.1,0.3,0.1   c0.2,0,0.3-0.1,0.4-0.2c0.1-0.2,0.2-0.4,0.1-0.5L59.4,51.6L59.4,51.6z M52.1,49.8c0.2,0,0.4,0,0.6,0.1c0.2,0,0.4,0.1,0.6,0.1   c0.2-0.1,0.4-0.1,0.5-0.1c0.2,0,0.4-0.1,0.6-0.1V50c-0.1,0-0.2,0-0.2,0.1c-0.1,0.1-0.1,0.1-0.1,0.2c0,0.2,0.1,0.3,0.1,0.5   c0.1,0.3,0.2,0.5,0.3,0.7l0.3,0.7l0.3-0.8c0.1-0.2,0.1-0.3,0.2-0.5c0-0.1,0-0.3,0.1-0.4c0-0.1,0-0.3-0.1-0.4   C55.2,50,55.1,50,55,49.9v-0.2c0.2,0,0.3,0,0.5,0s0.4,0.1,0.5,0.1s0.3-0.1,0.4-0.1c0.1,0,0.3,0,0.4,0v0.2c-0.4,0-0.9,0.8-1.6,2.4   l-0.1,0.1L55,52.7c-0.8,1.9-1.5,2.8-2.1,2.8c-0.1,0-0.3,0-0.4-0.1c-0.1-0.1-0.2-0.2-0.2-0.3s0-0.2,0-0.2c0-0.1,0.1-0.1,0.1-0.2   c0.1,0,0.1,0.1,0.2,0.1c0.1,0,0.1,0,0.2,0c0.3,0,0.5-0.1,0.7-0.3c0.3-0.3,0.5-0.6,0.6-1c-0.1-0.3-0.3-0.6-0.4-0.9   c0-0.1-0.1-0.2-0.1-0.2L53,51.3l0,0c-0.4-0.9-0.8-1.3-1-1.3L52.1,49.8L52.1,49.8z M49.7,50c-0.3,0-0.5,0.2-0.6,0.4   c-0.2,0.4-0.2,0.8-0.2,1.2s0,0.8,0.2,1.2c0.1,0.3,0.5,0.5,0.9,0.4c0.2-0.1,0.3-0.2,0.4-0.4c0.2-0.4,0.2-0.8,0.2-1.2s0-0.8-0.2-1.2   C50.2,50.1,50,50,49.7,50L49.7,50z M52,51.6c0,0.5-0.2,1.1-0.6,1.4c-1,0.7-2.3,0.7-3.3,0c-0.8-0.7-0.8-1.9-0.1-2.7l0.1-0.1   c1-0.7,2.3-0.7,3.3,0C51.8,50.5,52,51,52,51.6L52,51.6z M42.2,47.9c0.2,0,0.4,0,0.7,0.1c0.2,0,0.5,0.1,0.8,0.1   C44,48,44.3,48,44.5,48c0.2,0,0.5-0.1,0.7-0.1v0.3c-0.2,0-0.5,0.1-0.6,0.3c-0.1,0.4-0.2,0.8-0.2,1.2v2.1c0,0.3,0,0.6,0.2,0.9   c0.2,0.1,0.4,0.2,0.7,0.2s0.7,0,1-0.2c0.2-0.2,0.4-0.4,0.4-0.7H47c0,0.2,0,0.3-0.1,0.5c0,0.2-0.1,0.3-0.2,0.5l0.1,0.1v0.1   c0,0.1-0.1,0.2-0.2,0.2c-0.3,0.1-0.6,0.1-1,0.1s-0.8,0-1.2-0.1c-0.3,0-0.6-0.1-0.9-0.2c-0.3,0.1-0.5,0.1-0.7,0.2   c-0.2,0-0.4,0.1-0.6,0.1v-0.3c0.2,0,0.5-0.1,0.6-0.3c0.2-0.4,0.2-0.8,0.2-1.3v-1.8c0-0.4,0-0.9-0.2-1.3c-0.1-0.2-0.4-0.3-0.6-0.3   C42.2,48.2,42.2,47.9,42.2,47.9z M63.5,41.8l0.2,0.1c0,0.1,0,0.2,0,0.3s0,0.2,0,0.3h0.1c0.1-0.2,0.3-0.4,0.5-0.5   c0.2-0.1,0.5-0.2,0.8-0.2c0.4,0,0.8,0.1,1.1,0.4c0.3,0.4,0.4,0.9,0.3,1.4v0.6c0,0.3,0,0.6,0.1,0.9c0.1,0.1,0.3,0.2,0.4,0.2v0.3   c-0.2,0-0.4,0-0.6,0c-0.2,0-0.4-0.1-0.6-0.1c-0.1,0-0.3,0.1-0.4,0.1s-0.3,0-0.4,0.1c0-0.2,0-0.5,0.1-0.8c0-0.3,0-0.7,0-1   c0-0.4,0-0.8-0.1-1.2c-0.1-0.2-0.3-0.3-0.5-0.3c-0.2,0-0.4,0.1-0.5,0.3c-0.1,0.3-0.2,0.6-0.2,0.9v0.5c0,0.3,0,0.6,0.1,0.9   c0.1,0.1,0.3,0.2,0.4,0.2v0.3c-0.2,0-0.4,0-0.6-0.1c-0.2,0-0.4-0.1-0.6-0.1c-0.2,0.1-0.5,0.1-0.7,0.1s-0.4,0-0.6,0.1v-0.3   c0.2,0,0.3-0.1,0.4-0.2c0.1-0.3,0.1-0.7,0.1-1v-0.7c0-0.3,0-0.6-0.1-0.9c-0.1-0.1-0.2-0.2-0.4-0.2h-0.1v-0.1   c0.2,0,0.4-0.1,0.5-0.1s0.3,0,0.4,0H63c0.1-0.1,0.2-0.1,0.2-0.2C63.3,41.8,63.4,41.8,63.5,41.8L63.5,41.8z M61,43.4v0.7   c0,0.2,0,0.5,0.1,0.7c0,0.1,0.1,0.2,0.2,0.2h0.1h0.1l0.1,0.2c-0.1,0.2-0.3,0.3-0.5,0.4c-0.2,0.1-0.3,0.1-0.5,0.1   c-0.4,0-0.8-0.2-0.8-0.6c-0.1,0.2-0.3,0.4-0.6,0.5s-0.6,0.2-0.8,0.2c-0.3,0-0.6-0.1-0.8-0.2c-0.2-0.2-0.3-0.4-0.3-0.7   s0.1-0.5,0.4-0.7c0.4-0.2,0.8-0.4,1.3-0.4c0.2,0,0.5-0.1,0.7-0.2c0.1-0.1,0.1-0.2,0.1-0.4c0-0.3,0-0.5-0.1-0.7   c-0.1-0.1-0.2-0.2-0.4-0.2c-0.1,0-0.3,0-0.4,0.1c-0.1,0.1-0.2,0.2-0.2,0.4c0,0.1,0,0.1,0,0.2c0,0.1,0,0.1,0.1,0.2   c-0.1,0-0.2,0.1-0.3,0.1s-0.2,0-0.3,0s-0.3,0-0.4-0.1c-0.1-0.1-0.1-0.2-0.1-0.3c0-0.3,0.2-0.6,0.5-0.7c0.4-0.2,0.8-0.3,1.2-0.3   c0.7-0.1,1.5,0.3,1.6,1.1C61,43,61,43.2,61,43.4L61,43.4z M59.7,43.8L59.7,43.8c-0.7,0.2-1.1,0.5-1.1,0.8c0,0.1,0,0.3,0.1,0.4   c0.1,0.1,0.2,0.1,0.3,0.1c0.2,0,0.3-0.1,0.4-0.2c0.1-0.2,0.2-0.4,0.1-0.5L59.7,43.8L59.7,43.8z M55.5,40c0.4,0,0.7,0.3,0.7,0.7   s-0.3,0.7-0.7,0.7s-0.7-0.3-0.7-0.7l0,0c0-0.2,0.1-0.4,0.2-0.5C55.2,40.1,55.3,40,55.5,40z M56.1,41.8l0.2,0.1   c0,0.2,0,0.3-0.1,0.5c0,0.2,0,0.4,0,0.7v1.2c0,0.3,0,0.6,0.1,0.9c0.1,0.1,0.3,0.2,0.5,0.2v0.3c-0.2,0-0.4,0-0.6-0.1   c-0.2,0-0.4-0.1-0.6-0.1c-0.2,0.1-0.4,0.1-0.7,0.1c-0.2,0-0.4,0.1-0.6,0.1v-0.3c0.2,0,0.4-0.1,0.5-0.2c0.1-0.3,0.2-0.6,0.1-1v-0.8   c0-0.3,0-0.6-0.1-0.8c-0.1-0.1-0.2-0.2-0.4-0.2l0,0v-0.3c0.2,0,0.3,0,0.5-0.1c0.1,0,0.3,0,0.4,0h0.3c0.1-0.1,0.1-0.1,0.2-0.2   C55.9,41.9,56,41.8,56.1,41.8L56.1,41.8z M52.1,41.8l0.2,0.1c0,0.1,0,0.3-0.1,0.4c0,0.1,0,0.3,0,0.4h0.1c0.1-0.3,0.2-0.5,0.4-0.7   s0.4-0.3,0.6-0.3c0.2,0,0.3,0,0.5,0.2c0.1,0.1,0.2,0.2,0.2,0.4c0,0.1,0,0.3-0.1,0.4c-0.1,0.1-0.2,0.2-0.4,0.3   c-0.1-0.1-0.1-0.2-0.2-0.3c-0.1-0.1-0.2-0.1-0.3-0.1c-0.2,0-0.3,0.1-0.4,0.2c-0.1,0.2-0.1,0.5-0.1,0.8V44c0,0.4,0,0.7,0.2,1.1   c0.2,0.2,0.4,0.2,0.6,0.2v0.3c-0.2,0-0.5,0-0.7-0.1c-0.2,0-0.5-0.1-0.7-0.1c-0.2,0.1-0.4,0.1-0.6,0.1c-0.2,0-0.4,0.1-0.6,0.1v-0.3   c0.2,0,0.3-0.1,0.4-0.2c0.1-0.3,0.1-0.7,0.1-1v-0.7c0-0.3,0-0.6-0.1-0.9c-0.1-0.1-0.2-0.2-0.4-0.2h-0.1V42c0.1,0,0.3,0,0.4-0.1   c0.2,0,0.4,0,0.7,0l0,0C51.9,41.9,52,41.9,52.1,41.8z M49.5,39.8l0.2,0.1c0,0.2,0,0.4-0.1,0.6c0,0.2,0,0.5,0,0.9v2.4   c0,0.3,0,0.6,0.1,0.9c0.1,0.2,0.2,0.3,0.4,0.2h0.2v0.3c-0.2,0-0.3,0.1-0.5,0.1s-0.3,0-0.5,0H49c-0.1,0-0.1,0.1-0.2,0.1   c-0.1,0-0.1,0.1-0.2,0.1l-0.2-0.1l-0.1-0.2c0-0.1,0-0.2,0-0.3c-0.1,0.2-0.3,0.4-0.5,0.5c-0.3,0.1-0.5,0.2-0.8,0.2   c-0.5,0-0.9-0.2-1.2-0.5c-0.3-0.4-0.5-0.8-0.5-1.3c0-0.6,0.2-1.1,0.6-1.5c0.5-0.4,1-0.6,1.6-0.6c0.1,0,0.2,0,0.4,0   c0.1,0,0.2,0,0.3,0.1v-0.7c0-0.2,0-0.4-0.1-0.6c-0.1-0.1-0.3-0.2-0.5-0.2h-0.1V40c0.1,0,0.3,0,0.4,0c0.1,0,0.3,0,0.4,0h0.3   c0.1,0,0.2,0,0.3,0c0.1-0.1,0.1-0.1,0.2-0.2C49.3,39.9,49.4,39.9,49.5,39.8L49.5,39.8z M48.3,42.5c-0.1-0.1-0.1-0.2-0.3-0.3   c-0.1-0.1-0.2-0.1-0.4-0.1c-0.3,0-0.5,0.1-0.7,0.3c-0.2,0.3-0.3,0.6-0.2,0.9c0,0.4,0.1,0.8,0.3,1.1c0.1,0.3,0.4,0.4,0.7,0.4   c0.1,0,0.3,0,0.4-0.1c0.1-0.1,0.2-0.2,0.2-0.4c0-0.1,0-0.2,0-0.4C48.3,44.1,48.3,42.5,48.3,42.5z M41.7,40l0.6,0.1l0.6-0.1   l1.1,2.7c0.1,0.2,0.2,0.4,0.3,0.7c0.5,1.2,0.9,1.9,1.2,1.9l0,0v0.3c-0.2,0-0.5,0-0.7-0.1c-0.2,0-0.5-0.1-0.7-0.2   c-0.2,0.1-0.5,0.1-0.7,0.2c-0.2,0-0.4,0.1-0.7,0.1v-0.3c0.1,0,0.3,0,0.4-0.1c0.1-0.1,0.1-0.2,0.1-0.3s0-0.2-0.1-0.4   c-0.1-0.2-0.1-0.4-0.2-0.6l-0.1-0.4c-0.1,0-0.3,0-0.4,0h-1c-0.1,0-0.3,0-0.4,0l-0.1,0.4c-0.1,0.2-0.2,0.4-0.2,0.6   c0,0.1-0.1,0.3-0.1,0.4c0,0.1,0,0.2,0.1,0.2c0.1,0.1,0.2,0.1,0.4,0.1v0.3c-0.2,0-0.3,0-0.5-0.1c-0.2,0-0.3-0.1-0.5-0.1   c-0.2,0.1-0.3,0.1-0.5,0.1s-0.3,0-0.5,0.1v-0.3c0.4,0,1-0.7,1.5-2.1c0.1-0.2,0.2-0.4,0.2-0.5L41.7,40L41.7,40z M41.9,41.2   c-0.2,0.3-0.3,0.7-0.4,1c-0.1,0.3-0.3,0.7-0.4,1h1.5c-0.1-0.2-0.2-0.5-0.3-0.9C42.2,42,42,41.6,41.9,41.2z M59.2,35.3   c0.1,0,0.2,0,0.2,0v-0.1c0-0.2-0.1-0.4-0.2-0.6c-0.1-0.1-0.3-0.2-0.5-0.2s-0.3,0.1-0.5,0.2C58.1,34.8,58,35,58,35.2v0.1H59.2z    M60.6,35.6h-2.1c-0.1,0-0.2,0-0.3,0.1c-0.1,0-0.1,0.1-0.1,0.2c0,0.4,0.1,0.7,0.4,1c0.3,0.3,0.6,0.4,1,0.4c0.2,0,0.4,0,0.6-0.1   c0.2-0.1,0.4-0.2,0.5-0.3l0.1,0.2c-0.2,0.3-0.5,0.4-0.8,0.5c-0.4,0.1-0.7,0.2-1.1,0.2c-0.5,0-1.1-0.2-1.5-0.5   c-0.4-0.4-0.6-0.8-0.6-1.4c0-0.5,0.2-1.1,0.6-1.4c0.4-0.4,0.9-0.6,1.5-0.6c0.4,0,0.9,0.1,1.2,0.4c0.3,0.2,0.5,0.6,0.5,1v0.1   C60.6,35.5,60.6,35.5,60.6,35.6L60.6,35.6z M53,32l0.2,0.1c0,0.2,0,0.4-0.1,0.7c0,0.2,0,0.5,0,0.9v0.9c0.1-0.2,0.3-0.4,0.5-0.5   c0.2-0.1,0.5-0.2,0.8-0.2c0.4,0,0.8,0.1,1.1,0.4c0.3,0.4,0.4,0.9,0.3,1.4v0.6c0,0.3,0,0.6,0.1,0.9c0.1,0.1,0.3,0.2,0.4,0.2v0.3   c-0.2,0-0.4,0-0.5,0c-0.2,0-0.4-0.1-0.6-0.1c-0.1,0-0.3,0.1-0.4,0.1c-0.1,0-0.3,0-0.4,0.1c0-0.2,0-0.4,0-0.7s0-0.7,0-1.1   c0-0.4,0-0.8-0.1-1.1c-0.1-0.2-0.3-0.3-0.5-0.3s-0.4,0.1-0.5,0.3c-0.1,0.3-0.2,0.6-0.2,0.9v0.6c0,0.3,0,0.6,0.1,0.9   c0.1,0.1,0.3,0.2,0.4,0.2v0.3c-0.2,0-0.4,0-0.6-0.1c-0.2,0-0.4-0.1-0.6-0.1c-0.2,0.1-0.5,0.1-0.6,0.1c-0.2,0-0.4,0-0.6,0.1v-0.3   c0.2,0,0.3-0.1,0.4-0.2c0.1-0.3,0.1-0.7,0.1-1v-2.7c0-0.3,0-0.6-0.1-0.9c-0.1-0.1-0.2-0.2-0.4-0.2h-0.1v-0.3c0.1,0,0.3,0,0.4,0   c0.1,0,0.2,0,0.3,0H52c0.1,0,0.2,0,0.3,0c0.1-0.1,0.1-0.1,0.2-0.2C52.9,32,53,32,53,32L53,32z M45.7,32.1H46   c0,0.1,0.1,0.1,0.1,0.1c0.2,0,0.3,0,0.5,0h3.3c0.2,0,0.3,0,0.5,0c0.1,0,0.1-0.1,0.1-0.1h0.3c0,0.1,0,0.2,0,0.3   c0,0.1,0,0.2-0.1,0.3c0.1,0.2,0.1,0.4,0.1,0.5c0,0.2,0.1,0.4,0.1,0.5h-0.3c0-0.3-0.1-0.5-0.3-0.7s-0.5-0.3-0.7-0.3h-0.5   c0,0.2,0,0.5,0,0.8v2c0,0.4,0,0.8,0,1.2c0,0.2,0.1,0.3,0.1,0.5c0.1,0.1,0.2,0.2,0.3,0.2c0.2,0.1,0.3,0.1,0.5,0.1v0.3   c-0.3,0-0.5,0-0.8-0.1c-0.3,0-0.6-0.1-0.9-0.2c-0.3,0.1-0.6,0.1-0.9,0.2c-0.3,0-0.5,0.1-0.8,0.1v-0.3c0.2,0,0.4-0.1,0.5-0.1   s0.2-0.1,0.3-0.2c0.1-0.1,0.1-0.3,0.1-0.4c0-0.2,0-0.5,0-1v-2.4c0-0.2,0-0.4,0-0.6H47c-0.3,0-0.5,0.1-0.7,0.2   c-0.2,0.2-0.3,0.5-0.3,0.8h-0.3c0-0.2,0-0.4,0.1-0.5c0-0.2,0.1-0.4,0.1-0.5c0-0.1-0.1-0.2-0.1-0.3C45.8,32.3,45.8,32.2,45.7,32.1   L45.7,32.1z"></path>		<path class="st15" d="M84.4,53.2l0.2-0.8l2.1-0.1L85,51.1l0.2-0.7l2.4,1.7l0.4,0.3c0.1,0.1,0.2,0.2,0.3,0.3   c0.1,0.1,0.1,0.2,0.2,0.2c0,0.1,0,0.2,0,0.3s0,0.3-0.1,0.4c0,0.1-0.1,0.3-0.2,0.4l-0.6-0.1c0-0.1,0.1-0.2,0.1-0.3s0-0.3,0-0.4   c-0.1-0.1-0.2-0.2-0.3-0.3L84.4,53.2L84.4,53.2z M85.1,53.6L85,54.3c-0.1,0-0.3,0-0.4,0c-0.1,0.1-0.2,0.2-0.2,0.3   c-0.1,0.2-0.1,0.3,0,0.5s0.3,0.3,0.5,0.4c0.2,0.1,0.5,0.1,0.7,0.1c0.2-0.1,0.3-0.2,0.4-0.3s0.1-0.2,0-0.4   c-0.1-0.1-0.2-0.3-0.3-0.3l0.4-0.6c0.3,0.2,0.5,0.4,0.5,0.7c0.1,0.3,0.1,0.6-0.1,0.9c-0.1,0.3-0.4,0.6-0.7,0.8   c-0.8,0.2-1.6-0.1-2-0.8c-0.2-0.3-0.2-0.7,0-1.1c0.1-0.3,0.3-0.5,0.5-0.7C84.6,53.6,84.9,53.5,85.1,53.6L85.1,53.6z M84.2,57.4   c0,0.2-0.1,0.3-0.1,0.5c0,0.1-0.1,0.3-0.1,0.4c0,0.1,0.1,0.2,0.2,0.2s0.2,0.1,0.3,0c0.1,0,0.2-0.1,0.2-0.2   c0.1-0.1,0.1-0.3,0.1-0.4c0-0.1-0.1-0.2-0.1-0.3c-0.1-0.1-0.2-0.1-0.3-0.2H84.2L84.2,57.4z M83.2,58l-0.4,0.5   c-0.2-0.2-0.3-0.4-0.4-0.6c0-0.3,0-0.6,0.2-0.8c0.1-0.2,0.2-0.4,0.4-0.6c0.1-0.1,0.3-0.2,0.4-0.2c0.2,0,0.4,0.1,0.6,0.2l0.8,0.4   c0.2,0.1,0.3,0.2,0.5,0.2c0.1,0,0.3,0,0.4,0l-0.3,0.7c-0.1,0-0.2,0-0.2,0h-0.1c0.1,0.2,0.1,0.3,0.1,0.5c0,0.4-0.3,0.8-0.6,1   c-0.2,0.1-0.4,0.1-0.6,0c-0.1-0.1-0.2-0.2-0.3-0.3c-0.1-0.1-0.1-0.3-0.1-0.4c0-0.2,0-0.4,0.1-0.6c0.1-0.2,0.1-0.5,0.2-0.7h-0.1   c-0.1-0.1-0.2-0.1-0.3,0c-0.1,0-0.2,0.1-0.3,0.3c-0.2-0.1-0.2,0-0.2,0.2C83.1,57.9,83.1,58,83.2,58z M82,61   c0.2,0.1,0.4,0.2,0.6,0.2s0.3-0.1,0.4-0.2c0.1-0.1,0.1-0.3,0.1-0.5c-0.1-0.2-0.2-0.4-0.4-0.5c-0.2-0.1-0.4-0.2-0.6-0.2   s-0.3,0.1-0.4,0.3c-0.1,0.1-0.1,0.3-0.1,0.5C81.7,60.8,81.8,61,82,61L82,61z M83.1,62.5l0.5-0.7c0.1,0,0.1,0.1,0.2,0   s0.2-0.1,0.2-0.2c0.1-0.1,0.1-0.3,0.2-0.4c0-0.1,0-0.2-0.1-0.2c-0.1-0.1-0.2-0.2-0.3-0.2l-0.3-0.2c0.1,0.3,0.1,0.7-0.1,1   s-0.5,0.5-0.9,0.5c-0.3,0-0.7-0.1-0.9-0.3c-0.3-0.2-0.6-0.5-0.7-0.9c-0.1-0.3,0-0.6,0.1-0.9c0.2-0.3,0.5-0.5,0.8-0.5l-0.3-0.2   l0.4-0.6L84,60c0.2,0.1,0.4,0.3,0.6,0.5c0.1,0.1,0.2,0.3,0.2,0.4c0,0.2,0,0.3,0,0.5c-0.1,0.2-0.1,0.4-0.3,0.6   c-0.2,0.3-0.4,0.6-0.7,0.7C83.6,62.7,83.4,62.6,83.1,62.5L83.1,62.5L83.1,62.5z M80.8,62.6c-0.1-0.1-0.3-0.2-0.5-0.2   c-0.1,0-0.3,0.1-0.4,0.2c-0.1,0.1-0.1,0.3-0.1,0.4c0,0.2,0.1,0.3,0.3,0.4L80.8,62.6z M81.3,63.1l0.5-0.5c0.2,0.2,0.2,0.5,0.2,0.7   c0,0.3-0.1,0.5-0.3,0.7c-0.2,0.4-0.6,0.6-1,0.6c-0.7-0.1-1.4-0.6-1.6-1.3c-0.1-0.3,0-0.7,0.2-1s0.6-0.5,0.9-0.5   c0.5,0,0.9,0.2,1.2,0.5l-1.1,1.5c0.1,0.1,0.3,0.2,0.5,0.2s0.3-0.1,0.4-0.2c0.1-0.1,0.1-0.2,0.1-0.3C81.5,63.3,81.4,63.2,81.3,63.1   L81.3,63.1z M78.8,67.5l-2.9-2.4l0.5-0.6l2.4,2.1l1.2-1.5l0.5,0.4L78.8,67.5z M75.4,69.2l-0.5-0.6l1.1-1l0.5,0.6L75.4,69.2z    M70.4,70.7l0.6-0.5l1.7,1.2l-0.6-2l0.6-0.5l0.8,2.8l0.1,0.5c0,0.1,0.1,0.3,0.1,0.4s0,0.2,0,0.3c0,0.1-0.1,0.2-0.2,0.3   c-0.1,0.1-0.2,0.2-0.3,0.3c-0.1,0.1-0.2,0.1-0.4,0.2l-0.4-0.4c0.1,0,0.2-0.1,0.3-0.2s0.2-0.2,0.2-0.3c0-0.1,0-0.3-0.1-0.4   L70.4,70.7L70.4,70.7z M70.3,70.7l0.3,0.5l-0.4,0.3l0.6,1c0.1,0.1,0.1,0.2,0.2,0.3h0.1h0.1c0.1-0.1,0.2-0.1,0.2-0.2l0.4,0.5   c-0.1,0.2-0.3,0.3-0.4,0.4c-0.1,0.1-0.2,0.1-0.3,0.1s-0.2,0-0.3,0s-0.2-0.1-0.2-0.2c-0.1-0.1-0.2-0.2-0.3-0.4l-0.6-1l-0.3,0.2   l-0.3-0.5l0.3-0.2L69.1,71l0.4-0.8L70,71L70.3,70.7L70.3,70.7z M69.1,74.5L67.8,72l0.7-0.3l1.3,2.5L69.1,74.5z M67.7,71.7   l-0.3-0.6l0.7-0.3l0.3,0.6L67.7,71.7z M67.6,75.2L66,71.7l0.7-0.3l1.6,3.5L67.6,75.2z M66.1,75.9L65,73.3l0.7-0.3l1.1,2.6   L66.1,75.9z M64.9,72.9l-0.3-0.6l0.7-0.3l0.3,0.6L64.9,72.9z M63,75.4c0.1,0.2,0.2,0.4,0.3,0.6c0.2,0.1,0.5,0.1,0.7,0.1   c0.2-0.1,0.3-0.2,0.3-0.3c0.1-0.2,0-0.5-0.1-0.7s-0.2-0.4-0.4-0.6c-0.1-0.1-0.3-0.1-0.5,0S63,74.7,63,74.8   C62.9,75,62.9,75.2,63,75.4L63,75.4z M62.8,77l-1.3-3.6l0.7-0.3l0.5,1.3c0.1-0.3,0.3-0.5,0.6-0.6s0.6-0.1,0.9,0.1   c0.6,0.5,0.9,1.3,0.7,2c-0.1,0.3-0.3,0.5-0.6,0.6c-0.2,0.1-0.3,0.1-0.5,0.1c-0.2,0-0.4-0.1-0.5-0.2l0.1,0.4L62.8,77L62.8,77z    M60.9,76c-0.1,0.1-0.3,0.1-0.4,0.2c-0.1,0.1-0.3,0.1-0.4,0.2C60,76.5,60,76.6,60,76.7c0,0.1,0.1,0.2,0.2,0.2   c0.1,0.1,0.2,0.1,0.3,0c0.1,0,0.3-0.1,0.3-0.2c0.1-0.1,0.1-0.2,0.1-0.3c0-0.1,0-0.2-0.1-0.4L60.9,76z M59.8,75.6h-0.7   c0-0.2,0.1-0.5,0.2-0.7c0.2-0.2,0.5-0.3,0.8-0.4c0.2-0.1,0.5-0.1,0.8-0.1c0.2,0,0.3,0.1,0.4,0.2c0.1,0.2,0.2,0.4,0.2,0.6l0.2,0.8   c0,0.2,0.1,0.4,0.2,0.5c0.1,0.1,0.1,0.2,0.2,0.3L61.4,77c0-0.1-0.1-0.1-0.1-0.2v-0.1c-0.1,0.1-0.2,0.3-0.3,0.4s-0.3,0.2-0.4,0.2   c-0.2,0.1-0.5,0-0.7-0.1s-0.3-0.3-0.4-0.5c0-0.1,0-0.3,0-0.4s0.1-0.3,0.2-0.3c0.2-0.1,0.3-0.2,0.5-0.3c0.2-0.1,0.5-0.2,0.7-0.3   v-0.1c0-0.1-0.1-0.2-0.2-0.3c-0.1,0-0.3,0-0.4,0c-0.1,0-0.2,0.1-0.3,0.1C59.9,75.4,59.8,75.5,59.8,75.6L59.8,75.6z M58.9,77.8   l-0.7,0.1L58,76.5c0-0.2-0.1-0.4-0.1-0.6c0-0.1-0.1-0.1-0.2-0.2c-0.1,0-0.2-0.1-0.3,0c-0.1,0-0.2,0.1-0.3,0.2s-0.1,0.2-0.2,0.3   c0,0.2,0,0.4,0,0.6l0.2,1.3l-0.8,0L56,75.3l0.7-0.1l0.1,0.4c0.2-0.3,0.5-0.5,0.9-0.6c0.2,0,0.3,0,0.5,0c0.1,0,0.2,0.1,0.3,0.2   s0.1,0.2,0.2,0.3c0.1,0.2,0.1,0.3,0.1,0.5L58.9,77.8L58.9,77.8z M54.7,78.2l-0.1-2.8h0.7l0.1,2.8H54.7z M54.6,75v-0.7h0.7V75H54.6   z M53.1,76.9c-0.1,0-0.2,0.1-0.5,0.1c-0.1,0-0.3,0.1-0.4,0.1c-0.1,0.1-0.1,0.2-0.2,0.3c0,0.1,0,0.2,0.1,0.3   c0.1,0.1,0.2,0.1,0.3,0.1s0.3,0,0.4-0.1c0.1-0.1,0.2-0.1,0.2-0.2s0-0.2,0-0.4L53.1,76.9L53.1,76.9z M52.1,76.3l-0.6-0.2   c0.1-0.2,0.2-0.4,0.4-0.6c0.3-0.1,0.5-0.2,0.8-0.2s0.5,0,0.7,0.1c0.1,0.1,0.3,0.2,0.3,0.3c0.1,0.2,0.1,0.4,0.1,0.7v0.9   c0,0.2,0,0.4,0,0.5s0.1,0.3,0.1,0.4h-0.7c0-0.1,0-0.1-0.1-0.2v-0.1c-0.1,0.2-0.2,0.2-0.4,0.3s-0.3,0.1-0.5,0.1s-0.5-0.1-0.7-0.3   c-0.2-0.2-0.2-0.4-0.2-0.6c0-0.3,0.2-0.6,0.5-0.7c0.2-0.1,0.4-0.1,0.6-0.2c0.2,0,0.5-0.1,0.7-0.2v-0.1c0-0.1,0-0.2-0.1-0.3   c-0.1-0.1-0.3-0.1-0.4-0.1c-0.1,0-0.2,0-0.3,0.1C52.2,76.1,52.2,76.2,52.1,76.3L52.1,76.3z M51.1,75.4L51,76h-0.5l-0.1,1.1   c0,0.1,0,0.3,0,0.4c0,0,0,0.1,0.1,0.1h0.1c0.1,0,0.2,0,0.3,0v0.5c-0.2,0.1-0.4,0.1-0.6,0.1c-0.1,0-0.2,0-0.4-0.1   c-0.1,0-0.2-0.1-0.2-0.2s-0.1-0.2-0.1-0.3c0-0.2,0-0.3,0-0.5l0.1-1.2h-0.3l0.1-0.6h0.3l0.1-0.6l0.8-0.4l-0.1,1L51.1,75.4   L51.1,75.4z M46.4,76.7h0.8c0,0.1,0,0.3,0.1,0.4s0.2,0.2,0.4,0.2c0.1,0,0.3,0,0.4,0c0.1,0,0.1-0.1,0.1-0.2s0-0.1,0-0.2   c-0.1-0.1-0.1-0.1-0.2-0.1c-0.4-0.1-0.7-0.3-1.1-0.6c-0.2-0.2-0.3-0.4-0.2-0.7c0-0.2,0.2-0.4,0.4-0.5c0.3-0.1,0.6-0.2,0.9-0.1   c0.3,0,0.6,0.2,0.8,0.3c0.2,0.2,0.3,0.4,0.3,0.6h-0.7c0-0.1,0-0.2-0.1-0.3c-0.1-0.1-0.2-0.1-0.3-0.2c-0.1,0-0.3,0-0.4,0   c-0.1,0-0.1,0.1-0.1,0.1c0,0.1,0,0.1,0,0.1c0.2,0.1,0.4,0.3,0.6,0.3c0.3,0.1,0.5,0.3,0.8,0.5c0.1,0.2,0.2,0.4,0.1,0.6   c0,0.3-0.2,0.5-0.4,0.6c-0.3,0.1-0.7,0.2-1,0.1c-0.3,0-0.6-0.2-0.8-0.4C46.5,77.2,46.4,77,46.4,76.7L46.4,76.7z M44.9,77.3   l0.1-0.4c-0.1,0.1-0.3,0.2-0.5,0.2s-0.4,0-0.5,0c-0.2,0-0.3-0.1-0.5-0.3c-0.1-0.1-0.2-0.3-0.2-0.4c0-0.2,0-0.4,0.1-0.6l0.5-1.7   l0.7,0.2l-0.4,1.2c-0.1,0.2-0.1,0.5-0.2,0.7c0,0.1,0,0.2,0.1,0.2c0.1,0.1,0.1,0.1,0.2,0.2c0.1,0,0.2,0,0.4,0   c0.1,0,0.2-0.1,0.3-0.2c0.1-0.2,0.2-0.5,0.3-0.7l0.3-1.1l0.7,0.2l-0.8,2.7L44.9,77.3L44.9,77.3z M39.9,74.3l0.7,0.2   c-0.1,0.2,0,0.4,0,0.6c0.1,0.2,0.3,0.3,0.5,0.4s0.4,0.1,0.6,0.1c0.1,0,0.3-0.1,0.3-0.3c0-0.1,0-0.2,0-0.2c0-0.1-0.1-0.2-0.2-0.3   c-0.1-0.1-0.2-0.2-0.5-0.4c-0.3-0.2-0.5-0.4-0.7-0.7c-0.1-0.3-0.2-0.6,0-0.9c0.1-0.2,0.2-0.3,0.4-0.5c0.2-0.1,0.4-0.2,0.6-0.2   c0.3,0,0.5,0.1,0.8,0.2c0.4,0.1,0.7,0.4,0.9,0.7c0.1,0.3,0.2,0.6,0,0.9l-0.7-0.3c0-0.2,0-0.3,0-0.5c-0.1-0.1-0.2-0.3-0.4-0.3   c-0.2-0.1-0.4-0.1-0.5-0.1c-0.1,0-0.2,0.1-0.2,0.2s0,0.2,0,0.3c0.2,0.2,0.3,0.4,0.6,0.5c0.2,0.2,0.5,0.4,0.7,0.6   c0.3,0.3,0.3,0.8,0.2,1.1c-0.1,0.2-0.2,0.4-0.4,0.5s-0.4,0.2-0.6,0.2c-0.3,0-0.6-0.1-0.8-0.2c-0.4-0.1-0.7-0.4-0.9-0.7   C39.8,75,39.7,74.6,39.9,74.3L39.9,74.3z M36.7,73l0.3-0.7l1.3,0.7L38,73.7L36.7,73z M32.5,70.6l0.7,0.3c-0.1,0.1-0.1,0.3,0,0.4   c0,0.1,0.1,0.3,0.3,0.3c0.1,0.1,0.3,0.2,0.4,0.2c0.1,0,0.2,0,0.2-0.1v-0.1c0-0.1-0.1-0.2-0.1-0.2c-0.3-0.3-0.5-0.6-0.7-1   c-0.1-0.2-0.1-0.5,0.1-0.7c0.1-0.2,0.4-0.3,0.6-0.3c0.3,0,0.6,0.1,0.9,0.3c0.3,0.2,0.5,0.4,0.6,0.7c0.1,0.2,0.1,0.5,0,0.7   l-0.6-0.3c0-0.1,0-0.2,0-0.3c-0.1-0.1-0.1-0.2-0.2-0.3c-0.1-0.1-0.2-0.2-0.4-0.2c-0.1,0-0.1,0-0.2,0.1c0,0,0,0.1,0,0.2   c0.1,0.2,0.3,0.4,0.4,0.6c0.2,0.2,0.4,0.5,0.5,0.8c0,0.2,0,0.4-0.1,0.6c-0.2,0.2-0.4,0.3-0.7,0.3c-0.3,0-0.7-0.1-0.9-0.3   c-0.3-0.2-0.5-0.4-0.6-0.7C32.4,71.1,32.4,70.8,32.5,70.6L32.5,70.6z M30.1,68.7l0.7,0.4c-0.1,0.1-0.1,0.3-0.1,0.4   s0.1,0.3,0.2,0.3c0.1,0.1,0.3,0.2,0.4,0.2s0.2,0,0.2-0.1c0,0,0.1-0.1,0-0.1c0-0.1-0.1-0.1-0.1-0.2c-0.3-0.3-0.5-0.6-0.7-1   c-0.1-0.2,0-0.5,0.1-0.7s0.4-0.3,0.6-0.3c0.3,0,0.6,0.1,0.9,0.4c0.2,0.2,0.4,0.4,0.6,0.7c0.1,0.2,0.1,0.5,0,0.7l-0.6-0.3   c0-0.1,0.1-0.2,0-0.3c0-0.1-0.1-0.2-0.2-0.3c-0.2-0.4-0.3-0.4-0.5-0.4c-0.1,0-0.1,0-0.2,0.1c0,0,0,0.1,0,0.2   c0.1,0.2,0.3,0.4,0.4,0.6c0.2,0.2,0.4,0.5,0.5,0.8c0,0.2,0,0.4-0.2,0.6c-0.2,0.2-0.4,0.3-0.7,0.3c-0.3,0-0.7-0.1-0.9-0.4   c-0.3-0.2-0.5-0.4-0.6-0.7C29.9,69.2,29.9,68.9,30.1,68.7L30.1,68.7z M29.8,67.2c0.1-0.1,0.2-0.3,0.2-0.5c0-0.1-0.1-0.3-0.2-0.4   s-0.3-0.2-0.4-0.2c-0.2,0-0.3,0.1-0.4,0.2L29.8,67.2z M29.3,67.7l0.5,0.6c-0.2,0.1-0.5,0.2-0.8,0.1c-0.3,0-0.5-0.2-0.7-0.4   c-0.3-0.3-0.5-0.7-0.5-1.1c0.1-0.3,0.2-0.6,0.5-0.9c0.3-0.3,0.6-0.5,1-0.5c0.3,0,0.7,0.1,0.9,0.4c0.3,0.2,0.4,0.6,0.4,1   c-0.1,0.4-0.3,0.9-0.6,1.1l-1.3-1.3c-0.1,0.1-0.2,0.3-0.2,0.5s0.1,0.3,0.2,0.4c0.1,0.1,0.2,0.1,0.3,0.1   C29.1,67.8,29.2,67.8,29.3,67.7L29.3,67.7z M26.9,66.6L26.4,66l1.1-0.9c0.2-0.1,0.3-0.3,0.4-0.4c0-0.1,0.1-0.2,0.1-0.3   s0-0.2-0.1-0.2c-0.1-0.1-0.2-0.2-0.3-0.2s-0.2,0-0.4,0c-0.2,0.1-0.4,0.2-0.5,0.4l-1,0.8l-0.5-0.6l2.1-1.8l0.4,0.5l-0.3,0.3   c0.4,0,0.7,0.1,1,0.4c0.1,0.1,0.2,0.3,0.2,0.4c0,0.1,0.1,0.3,0,0.4c0,0.1-0.1,0.2-0.1,0.3c-0.1,0.1-0.2,0.2-0.4,0.4L26.9,66.6z    M27.1,62.5l-0.5,0.3l-0.3-0.4L25.4,63c-0.2,0.1-0.3,0.2-0.3,0.2v0.1v0.1c0.1,0.1,0.1,0.1,0.2,0.2l-0.4,0.5   c-0.2-0.1-0.3-0.2-0.4-0.4c-0.1-0.1-0.1-0.2-0.2-0.3c0-0.1,0-0.2,0-0.3s0.1-0.2,0.2-0.2c0.1-0.1,0.3-0.2,0.4-0.3l1-0.7l-0.2-0.3   l0.5-0.3l0.2,0.3l0.5-0.3l0.8,0.4l-0.9,0.4L27.1,62.5z M24.3,61c-0.1-0.1-0.2-0.2-0.3-0.3s-0.2-0.2-0.3-0.3c-0.1,0-0.2,0-0.3,0   c-0.1,0.1-0.1,0.1-0.2,0.2c0,0.1,0,0.2,0.1,0.3s0.2,0.2,0.3,0.3c0.1,0,0.2,0,0.3,0S24.1,61.1,24.3,61L24.3,61L24.3,61z M24.3,59.8   L24,59.2c0.2-0.1,0.5-0.1,0.7,0c0.3,0.1,0.5,0.3,0.6,0.6c0.1,0.2,0.2,0.4,0.3,0.7c0,0.2,0,0.3-0.1,0.5s-0.3,0.3-0.5,0.4l-0.7,0.5   c-0.2,0.1-0.3,0.2-0.4,0.3s-0.2,0.2-0.2,0.3l-0.4-0.6c0-0.1,0.1-0.1,0.2-0.2c0,0,0,0,0.1-0.1c-0.2,0-0.3-0.1-0.5-0.2   c-0.1-0.1-0.2-0.2-0.3-0.3c-0.1-0.2-0.2-0.5-0.2-0.7c0.1-0.4,0.4-0.6,0.8-0.7c0.1,0,0.3,0,0.4,0.1c0.2,0.1,0.3,0.3,0.5,0.4   c0.2,0.2,0.3,0.4,0.5,0.5h0.1c0.1-0.1,0.2-0.1,0.2-0.2c0-0.1,0-0.3-0.1-0.4c-0.1-0.1-0.1-0.2-0.2-0.2   C24.5,59.8,24.4,59.8,24.3,59.8L24.3,59.8z M23.2,58.3c0.2-0.1,0.3-0.2,0.4-0.4c0.1-0.1,0-0.3,0-0.4c-0.1-0.1-0.2-0.2-0.3-0.3   c-0.2,0-0.4,0-0.5,0.1L23.2,58.3z M22.5,58.6l0.2,0.7c-0.3,0-0.5,0-0.8-0.1c-0.2-0.1-0.4-0.3-0.5-0.6c-0.2-0.4-0.2-0.8,0-1.2   c0.2-0.3,0.4-0.5,0.7-0.7c0.3-0.2,0.8-0.3,1.1-0.2c0.3,0.1,0.6,0.3,0.8,0.7c0.2,0.3,0.2,0.7,0.1,1.1c-0.2,0.4-0.6,0.7-1,0.9   l-0.8-1.7c-0.2,0.1-0.3,0.2-0.4,0.4s-0.1,0.3,0,0.5c0,0.1,0.1,0.2,0.2,0.2C22.2,58.6,22.4,58.6,22.5,58.6z M20.3,56.2L20,55.5   l2.6-1l0.3,0.6l-0.4,0.1c0.2,0,0.3,0.1,0.5,0.2c0.1,0.1,0.2,0.2,0.2,0.3c0.1,0.2,0.1,0.3,0,0.5h-0.7c0-0.1,0-0.3,0-0.4   c0-0.1-0.1-0.2-0.2-0.2c-0.1-0.1-0.2-0.1-0.4,0c-0.3,0.1-0.6,0.2-0.9,0.3L20.3,56.2z M20.6,52.7l0.6-0.2l0.4,1.6l-1.5,0.4   c-0.2-0.2-0.4-0.4-0.6-0.6c-0.2-0.3-0.3-0.6-0.4-0.9c-0.1-0.4-0.1-0.7,0-1.1c0.1-0.3,0.3-0.6,0.5-0.8c0.3-0.2,0.6-0.4,0.9-0.5   c0.4-0.1,0.7-0.1,1.1,0c0.3,0.1,0.7,0.3,0.9,0.5c0.3,0.4,0.5,0.7,0.5,1c0.1,0.4,0.1,0.8,0,1.2c-0.1,0.3-0.4,0.6-0.7,0.7L22,53.2   c0.2-0.1,0.3-0.2,0.4-0.4s0.1-0.4,0-0.6c-0.1-0.3-0.3-0.6-0.5-0.7c-0.3-0.1-0.7-0.2-1,0c-0.4,0.1-0.7,0.3-0.9,0.6   c-0.2,0.3-0.2,0.6-0.1,0.9c0,0.2,0.1,0.3,0.2,0.5c0.1,0.1,0.2,0.2,0.3,0.3l0.5-0.1L20.6,52.7L20.6,52.7z"></path>	</g>	<g>		<path class="st16" d="M108.3,38.6V17.4h-3.1v-5h11.5v5h-3.2v21.2h-5.2V38.6z M119,38.6V12.4h5.2v9.4h2.5v-9.4h5.2v26.3h-5.2V26.7   h-2.5v11.9H119V38.6z M135.1,38.6V12.4h10.5v5.1h-5.1v5.1h4.9v4.9h-4.9v6h5.5v5.1h-10.9V38.6z M156,38.6l2.5-26.3h8.9l2.5,26.3h-5   l-0.3-4.2h-3.2l-0.3,4.2H156z M161.8,30.1h2.4l-1.1-13.3h-0.2L161.8,30.1z M172.5,38.6V12.4h7.2c1.6-0.1,3.1,0.5,4.3,1.6   c1,1.3,1.5,2.9,1.4,4.6v12.3c0.1,2-0.3,4-1.3,5.7c-0.9,1.3-2.4,2-4.6,2L172.5,38.6z M177.7,34h0.9c0.7,0.1,1.3-0.4,1.4-1   c0-0.1,0-0.2,0-0.4V19c0.1-0.6-0.1-1.2-0.4-1.7c-0.4-0.3-0.9-0.5-1.4-0.4h-0.6v17H177.7z M188.4,38.6V12.4h8   c1.1-0.1,2.2,0.2,3,0.9c0.7,0.7,1.2,1.6,1.4,2.6c0.3,1.3,0.4,2.6,0.4,3.9c0,1.2-0.1,2.3-0.6,3.4c-0.4,0.9-1.1,1.5-2,1.8   c0.7,0.1,1.4,0.6,1.7,1.2c0.4,0.8,0.5,1.6,0.5,2.5v9.9h-5.2V28.3c0-0.8-0.2-1.2-0.5-1.4c-0.5-0.2-1-0.3-1.5-0.3v12h-5.2V38.6z    M193.7,22.1h1.3c0.7,0,1.1-0.8,1.1-2.4c0-0.7,0-1.4-0.2-2c-0.2-0.3-0.5-0.5-0.9-0.5h-1.2L193.7,22.1z M203.7,38.6V12.4h5.1v26.3   h-5.1V38.6z M211,38.6l2.5-26.3h8.9l2.5,26.3h-5l-0.4-4.2h-3.2l-0.3,4.2H211z M216.8,30.1h2.4l-1.1-13.3h-0.2L216.8,30.1z    M227.5,38.6V12.4h5.4l2.4,12.5V12.4h5.1v26.3h-5.1l-2.6-13.1v13.1h-5.2V38.6z M251.7,38.6V12.4h5.2v21.7h5.4v4.5h-10.6V38.6z    M271,38.9c-1.8,0.1-3.6-0.6-4.8-1.9c-1.2-1.6-1.8-3.5-1.7-5.5V19c-0.1-1.8,0.5-3.7,1.6-5.1c2.8-2.3,6.8-2.3,9.6,0   c1.2,1.4,1.8,3.3,1.7,5.1v12.4c0.1,2-0.5,3.9-1.7,5.5C274.6,38.3,272.8,39,271,38.9L271,38.9z M271,34.1c0.8,0,1.2-0.8,1.2-2.3   V18.9c0-1.3-0.4-1.9-1.2-1.9c-0.9,0-1.3,0.7-1.3,2v12.8c0,0.6,0.1,1.2,0.3,1.8C270.3,33.8,270.6,34.1,271,34.1L271,34.1z    M283.7,38.6v-8.6l-4.2-17.6h5.2l1.5,8.9l1.5-8.9h5.2l-4.2,17.6v8.6H283.7z M293.7,38.6l2.5-26.3h8.9l2.5,26.3h-5l-0.4-4.2H299   l-0.3,4.2H293.7z M299.5,30.1h2.4l-1.1-13.3h-0.2L299.5,30.1z M310.1,38.6V12.4h5.2v21.7h5.4v4.5h-10.6V38.6z M337.4,38.9   c-2.4,0-4.1-0.6-5.2-1.8c-1.1-1.2-1.6-3.1-1.6-5.7v-2.6h5.2V32c0,0.5,0.1,1,0.3,1.4c0.2,0.3,0.6,0.5,1,0.5c0.4,0,0.8-0.1,1-0.4   c0.2-0.4,0.3-0.9,0.3-1.4c0-0.7-0.1-1.4-0.2-2c-0.2-0.6-0.5-1.1-0.8-1.5c-0.5-0.6-1-1.2-1.6-1.7l-2.4-2.2   c-1.7-1.4-2.6-3.5-2.6-5.7c-0.1-1.8,0.4-3.7,1.5-5.1c1.2-1.2,2.8-1.9,4.5-1.8c2.4,0,4.1,0.6,5.1,1.9s1.5,3.2,1.5,5.8h-5.3V18   c0-0.3-0.1-0.6-0.3-0.8c-0.2-0.2-0.5-0.3-0.8-0.3c-0.3,0-0.7,0.1-0.9,0.4c-0.2,0.3-0.3,0.6-0.3,0.9c0,0.4,0.1,0.8,0.3,1.2   c0.3,0.6,0.7,1.1,1.2,1.5l3,2.9c0.6,0.6,1.2,1.2,1.7,1.8c0.5,0.7,0.9,1.4,1.2,2.2c0.3,1,0.5,2,0.5,3.1c0.1,2-0.4,4-1.4,5.8   C341.2,38.2,339.7,38.9,337.4,38.9L337.4,38.9z M352.4,38.9c-1.7,0.1-3.4-0.6-4.6-1.8c-1.2-1.4-1.8-3.1-1.7-5V20   c-0.1-2.1,0.4-4.1,1.5-5.8c1-1.3,2.7-2,4.9-2c1.1,0,2.3,0.2,3.3,0.7c1,0.4,1.8,1.2,2.3,2.1c0.6,1,0.9,2.2,0.8,3.4v4.5h-5.2V19   c0.1-0.5-0.1-1.1-0.3-1.6c-0.2-0.3-0.6-0.4-0.9-0.4c-0.4,0-0.8,0.2-1,0.5c-0.2,0.4-0.3,0.9-0.3,1.4V32c0,0.5,0.1,1.1,0.3,1.5   c0.2,0.3,0.6,0.5,0.9,0.4c0.4,0,0.8-0.2,0.9-0.6c0.2-0.4,0.3-0.9,0.3-1.4v-4.6h5.3v5c0,2.3-0.6,4-1.7,5   C355.9,38.4,354.1,39,352.4,38.9L352.4,38.9z M361.7,38.6V12.4h5.2v9.4h2.5v-9.4h5.2v26.3h-5.2V26.7h-2.5v11.9h-5.2V38.6z    M384,38.9c-1.8,0.1-3.6-0.6-4.8-1.9c-1.2-1.6-1.8-3.5-1.7-5.5V19c-0.1-1.8,0.5-3.7,1.6-5.1c2.8-2.3,6.8-2.3,9.6,0   c1.2,1.4,1.8,3.3,1.7,5.1v12.4c0.1,2-0.5,3.9-1.7,5.5C387.6,38.3,385.8,39,384,38.9L384,38.9z M384.1,34.1c0.8,0,1.2-0.8,1.2-2.3   V18.9c0-1.3-0.4-1.9-1.2-1.9c-0.9,0-1.3,0.7-1.3,2v12.8c0,0.6,0.1,1.2,0.3,1.8C383.3,33.8,383.7,34.1,384.1,34.1L384.1,34.1z    M399.9,38.9c-1.8,0.1-3.6-0.6-4.8-1.9c-1.2-1.6-1.8-3.5-1.7-5.5V19c-0.1-1.8,0.5-3.7,1.6-5.1c2.8-2.3,6.8-2.3,9.6,0   c1.2,1.4,1.8,3.3,1.7,5.1v12.4c0.1,2-0.5,3.9-1.7,5.5C403.4,38.3,401.7,39,399.9,38.9L399.9,38.9z M399.9,34.1   c0.8,0,1.2-0.8,1.2-2.3V18.9c0-1.3-0.4-1.9-1.2-1.9c-0.9,0-1.3,0.7-1.3,2v12.8c0,0.6,0.1,1.2,0.3,1.8   C399.1,33.8,399.5,34.1,399.9,34.1L399.9,34.1z M409.4,38.6V12.4h5.2v21.7h5.4v4.5h-10.6V38.6z"></path>		<g>			<path class="st16" d="M115.8,52.5h5.5c0.1,0,0.2,0,0.3,0.1c0,0,0.1,0.1,0.1,0.3v0.7c0,0.1,0,0.2-0.1,0.2c-0.1,0-0.2,0.1-0.3,0h-1    c-0.1,0-0.2,0-0.2,0.1c0,0.1-0.1,0.2,0,0.2v1.1c0,0.1,0,0.3,0,0.4s0,0.2-0.1,0.3c-0.2,0.4-0.4,0.7-0.7,1c-0.3,0.4-0.7,0.7-1.1,1    c-0.5,0.3-1.1,0.6-1.6,0.8c-0.7,0.2-1.4,0.3-2.2,0.3c-0.9,0-1.7-0.1-2.6-0.5c-0.7-0.3-1.4-0.7-2.1-1.3c-0.6-0.6-1-1.3-1.3-2.1    c-0.3-0.8-0.5-1.7-0.5-2.7c0-0.9,0.2-1.7,0.5-2.6c0.3-0.8,0.8-1.4,1.4-2.1c0.6-0.6,1.3-1,2.1-1.3c0.8-0.3,1.6-0.5,2.6-0.5    c0.7,0,1.4,0.1,2.1,0.3s1.1,0.5,1.5,0.9c0.1,0.1,0.2,0.1,0.2,0.1s0.1-0.1,0.2-0.2l0.3-0.7c0-0.1,0.1-0.1,0.1-0.2    c0-0.1,0.1-0.1,0.2-0.1h0.6c0.1,0,0.1,0,0.2,0s0.1,0.1,0.1,0.2v3.7c0,0.1,0,0.2,0,0.3c0,0.1-0.1,0.1-0.2,0.1H119    c-0.2,0-0.3,0-0.3-0.1c0-0.1-0.1-0.2-0.1-0.3c-0.1-0.5-0.3-1-0.6-1.4c-0.3-0.4-0.7-0.8-1.2-1c-0.6-0.3-1.3-0.4-2.1-0.4    c-0.8,0-1.5,0.2-2.2,0.7s-1.1,1.1-1.4,1.8c-0.3,0.8-0.5,1.7-0.5,2.7c0,0.9,0.1,1.8,0.4,2.7c0.2,0.7,0.7,1.3,1.3,1.8    c0.6,0.5,1.3,0.7,2.1,0.7c0.5,0,1.1-0.1,1.6-0.3c0.4-0.2,0.7-0.4,1-0.7c0.2-0.3,0.4-0.6,0.6-0.9c0-0.1,0.1-0.2,0.1-0.2    c0-0.1,0-0.2,0-0.3V54c0-0.1,0-0.2-0.1-0.2s-0.2-0.1-0.3,0h-1.5c-0.1,0-0.2,0-0.3-0.1c0-0.1-0.1-0.2-0.1-0.3v-0.7    c0-0.2,0-0.2,0.1-0.3C115.6,52.5,115.7,52.5,115.8,52.5z M124.1,51.8c0-0.1,0-0.2,0-0.3c0,0-0.1-0.1-0.2-0.1H123    c-0.1,0-0.2,0-0.2-0.1c0-0.1,0-0.2,0-0.2v-0.6c0-0.1,0-0.2,0-0.2s0.1-0.1,0.2-0.1h3c0.1,0,0.1,0,0.2,0c0,0,0.1,0.1,0.1,0.2v0.8    c0,0.1,0,0.2,0,0.3c0,0,0.1,0,0.1-0.2c0.2-0.4,0.5-0.7,0.9-1c0.4-0.3,0.9-0.4,1.4-0.4s1,0.1,1.4,0.5c0.4,0.3,0.6,0.8,0.6,1.3    c0,0.2-0.1,0.5-0.2,0.7c-0.1,0.2-0.3,0.4-0.5,0.6c-0.2,0.1-0.5,0.2-0.7,0.2c-0.3,0-0.6-0.1-0.9-0.3c-0.2-0.2-0.4-0.4-0.4-0.7    c0-0.2,0-0.3,0.1-0.5c0.1-0.1,0.1-0.2,0.2-0.3s0.1-0.1,0.1-0.2s0-0.1-0.1-0.2c-0.1,0-0.2-0.1-0.3-0.1c-0.4,0-0.7,0.2-0.9,0.4    c-0.3,0.3-0.6,0.7-0.7,1.2c-0.2,0.5-0.3,1-0.3,1.6v3.2c0,0.1,0,0.2,0,0.3c0,0,0.1,0.1,0.2,0.1h1c0.1,0,0.2,0,0.2,0.1    c0,0.1,0,0.1,0,0.2v0.7c0,0.1,0,0.2,0,0.2s-0.1,0.1-0.2,0.1h-4.6c-0.1,0-0.1,0-0.2,0s-0.1-0.1-0.1-0.2v-0.7c0-0.1,0-0.2,0-0.2    c0.1,0,0.1,0,0.2,0h0.9c0.1,0,0.2,0,0.3,0c0.1,0,0.1-0.1,0.1-0.2L124.1,51.8z M131.6,54.9c0-0.8,0.1-1.6,0.5-2.5    c0.3-0.7,0.8-1.3,1.4-1.7c0.7-0.4,1.5-0.6,2.5-0.6c0.5,0,1.1,0.1,1.6,0.3c0.4,0.2,0.8,0.4,1.1,0.7s0.5,0.6,0.7,1    c0.2,0.4,0.3,0.8,0.4,1.2c0.1,0.4,0.1,0.8,0.1,1.2c0,0.1,0,0.2-0.1,0.2s-0.2,0-0.2,0h-5.4c-0.1,0-0.1,0-0.2,0    c0,0.1-0.1,0.1,0,0.2c0,0.5,0.1,1,0.2,1.5c0.1,0.4,0.4,0.8,0.7,1.1c0.3,0.3,0.8,0.4,1.2,0.4c0.5,0,1-0.2,1.4-0.5    c0.4-0.4,0.7-0.8,0.9-1.3c0,0,0-0.1,0.1-0.1c0,0,0.1-0.1,0.2-0.1h0.9c0.1,0,0.2,0,0.2,0v0.1c-0.1,0.6-0.4,1.1-0.7,1.5    c-0.3,0.4-0.8,0.8-1.3,1c-0.6,0.2-1.2,0.4-1.8,0.3c-0.8,0-1.6-0.2-2.4-0.6c-0.6-0.4-1.1-0.9-1.4-1.6    C131.7,56.4,131.6,55.6,131.6,54.9z M134.2,53.8h3.2c0.1,0,0.1,0,0.2,0v-0.1c0-0.3,0-0.6-0.1-0.8c-0.1-0.3-0.2-0.6-0.3-0.8    c-0.1-0.2-0.3-0.5-0.5-0.6c-0.2-0.2-0.5-0.2-0.7-0.2c-0.4,0-0.8,0.1-1.1,0.4c-0.3,0.2-0.5,0.6-0.6,0.9c-0.1,0.4-0.2,0.7-0.2,1.1    c0,0.1,0,0.1,0,0.2C134,53.8,134.1,53.8,134.2,53.8z M141.3,57c0-0.5,0.2-1.1,0.5-1.5c0.4-0.5,0.9-0.8,1.5-1    c0.8-0.3,1.6-0.4,2.5-0.4h0.7c0.1,0,0.1,0,0.2,0c0,0,0-0.1,0-0.2v-0.9c0-0.3,0-0.6-0.1-0.9c-0.1-0.2-0.3-0.5-0.5-0.6    c-0.3-0.2-0.6-0.2-0.9-0.2c-0.2,0-0.4,0-0.7,0.1c-0.2,0-0.3,0.1-0.5,0.2c-0.1,0.1-0.2,0.2-0.2,0.2c0,0.1,0,0.2,0.1,0.2    c0.1,0.1,0.1,0.1,0.2,0.2s0.1,0.3,0.1,0.5c0,0.3-0.1,0.6-0.3,0.8c-0.2,0.2-0.5,0.3-0.8,0.3c-0.3,0-0.6-0.1-0.8-0.2    c-0.3-0.2-0.4-0.5-0.4-0.8c0-0.4,0.1-0.7,0.3-1s0.5-0.5,0.9-0.7c0.4-0.2,0.8-0.3,1.2-0.4c0.5-0.1,0.9-0.1,1.4-0.1    c0.6,0,1.2,0.1,1.8,0.4c0.4,0.2,0.7,0.5,0.9,1c0.2,0.4,0.3,0.9,0.3,1.4v4.6c0,0.1,0,0.3,0.1,0.4c0.1,0.1,0.2,0.1,0.3,0.1    c0.1,0,0.2,0,0.4-0.1c0.2-0.1,0.3-0.2,0.4-0.4c0.1-0.1,0.1-0.1,0.2-0.1l0.5,0.3c0.1,0,0.1,0.1,0.1,0.2l0,0    c-0.1,0.2-0.3,0.5-0.5,0.6c-0.4,0.4-1,0.6-1.5,0.6l0,0c-0.3,0-0.6,0-0.9-0.2c-0.2-0.1-0.4-0.2-0.5-0.4c-0.1-0.1-0.2-0.3-0.3-0.5    c0-0.1-0.1-0.2-0.1-0.2s-0.1,0-0.2,0.1c-0.1,0.2-0.3,0.3-0.5,0.5s-0.5,0.3-0.8,0.4c-0.4,0.1-0.9,0.2-1.3,0.2    c-0.7,0-1.4-0.2-2-0.6C141.5,58.3,141.2,57.6,141.3,57z M143.6,56.7c0,0.4,0.1,0.7,0.4,1c0.7,0.5,1.6,0.4,2.3-0.2    c0.3-0.4,0.5-1,0.5-1.6v-0.8c0-0.1,0-0.2-0.1-0.2l0,0h-0.6c-0.4,0-0.9,0.1-1.3,0.2c-0.3,0.1-0.6,0.3-0.7,0.6    C143.7,56.1,143.6,56.4,143.6,56.7L143.6,56.7z M156.9,57.4c-0.1,0.3-0.3,0.6-0.5,0.9c-0.2,0.3-0.5,0.5-0.8,0.7    c-0.4,0.2-0.8,0.3-1.3,0.2c-0.6,0.1-1.1-0.1-1.5-0.5c-0.3-0.4-0.5-0.9-0.5-1.4v-5.5c0-0.1,0-0.2,0-0.2c-0.1-0.1-0.1-0.1-0.2-0.1    h-1c-0.1,0-0.2,0-0.2,0c0-0.1-0.1-0.1,0-0.2v-0.7c0-0.1,0-0.2,0-0.2c0.1,0,0.1,0,0.2,0c0.3,0,0.5,0,0.8-0.1    c0.2,0,0.4-0.1,0.6-0.3c0.2-0.2,0.4-0.4,0.5-0.7c0.2-0.4,0.3-0.8,0.4-1.2c0-0.1,0-0.1,0.1-0.2c0,0,0.1-0.1,0.2-0.1h0.6    c0.2,0,0.2,0.1,0.2,0.2v2.1c0,0.1,0,0.2,0.1,0.2s0.2,0.1,0.2,0h1.8c0.1,0,0.1,0,0.2,0c0,0.1,0.1,0.1,0,0.2v0.7    c0,0.1,0,0.2-0.1,0.2c-0.1,0-0.1,0-0.2,0h-1.7c-0.1,0-0.2,0-0.2,0s-0.1,0.1-0.1,0.2v5.2c0,0.2,0,0.5,0.2,0.7    c0.1,0.1,0.3,0.2,0.5,0.2c0.2,0,0.4-0.1,0.6-0.2c0.2-0.2,0.4-0.4,0.5-0.6c0-0.1,0.1-0.1,0.1-0.1s0.1,0,0.2,0l0.4,0.2    c0.1,0,0.1,0.1,0.2,0.1C156.9,57.3,156.9,57.3,156.9,57.4z M158.9,51.5h-1c-0.1,0-0.2,0-0.2-0.1s0-0.1,0-0.2v-0.6    c0-0.1,0-0.1,0.1-0.2c0.1,0,0.1-0.1,0.2-0.1h3c0.1,0,0.2,0,0.2,0.1c0.1,0.1,0.1,0.2,0.1,0.2v0.8c0,0.2,0,0.3,0,0.3s0.1,0,0.2-0.1    c0.3-0.4,0.6-0.8,1.1-1c0.5-0.3,1.1-0.5,1.7-0.4c0.6,0,1.1,0.1,1.6,0.3c0.4,0.2,0.7,0.5,0.9,0.9c0.2,0.5,0.3,1,0.3,1.5v4.6    c0,0.1,0,0.2,0,0.3c0,0,0.1,0.1,0.3,0.1h0.9c0.1,0,0.2,0,0.2,0.1c0,0.1,0.1,0.1,0,0.2v0.5c0,0.1,0,0.2-0.1,0.2    c-0.1,0-0.2,0-0.3,0h-4.4c-0.1,0-0.2,0-0.2-0.1c0-0.1,0-0.1,0-0.2V58c0-0.1,0-0.1,0-0.2c0,0,0.1-0.1,0.2-0.1h0.7    c0.1,0,0.2,0,0.3,0c0,0,0.1-0.1,0.1-0.3v-4.5c0-0.4-0.1-0.9-0.3-1.2s-0.6-0.5-1-0.4c-0.4,0-0.8,0.1-1.2,0.4    c-0.4,0.3-0.6,0.6-0.8,1c-0.2,0.5-0.3,1-0.3,1.5v3.3c0,0.1,0,0.3,0.2,0.3h0.1h0.6c0.1,0,0.2,0,0.2,0s0.1,0.1,0.1,0.2v0.7    c0,0.1,0,0.2-0.1,0.2c-0.1,0-0.1,0.1-0.2,0h-4.4c-0.1,0-0.2,0-0.2-0.1c0-0.1,0-0.2,0-0.2V58c0-0.1,0-0.2,0.1-0.2    c0.1,0,0.2-0.1,0.2,0h0.9c0.1,0,0.2,0,0.3,0c0,0,0.1-0.1,0.1-0.2v-6c0-0.1,0-0.2-0.1-0.2C159,51.5,159,51.5,158.9,51.5    L158.9,51.5z M169.3,54.9c0-0.8,0.1-1.6,0.5-2.5c0.3-0.7,0.8-1.3,1.4-1.7c0.7-0.4,1.5-0.6,2.5-0.6c0.5,0,1.1,0.1,1.6,0.3    c0.4,0.2,0.8,0.4,1.1,0.7s0.5,0.6,0.7,1c0.2,0.4,0.3,0.8,0.4,1.2c0.1,0.4,0.1,0.8,0.1,1.2c0,0.1,0,0.2-0.1,0.2    c-0.1,0-0.2,0-0.2,0H172c-0.1,0-0.1,0-0.2,0c0,0.1-0.1,0.1,0,0.2c0,0.5,0.1,1,0.2,1.5c0.1,0.4,0.4,0.8,0.7,1.1s0.8,0.4,1.2,0.4    c0.5,0,1-0.2,1.4-0.5c0.4-0.4,0.7-0.8,0.9-1.3c0,0,0-0.1,0.1-0.1c0,0,0.1-0.1,0.2-0.1h0.9c0.1,0,0.2,0,0.2,0v0.1    c-0.1,0.6-0.4,1.1-0.7,1.5c-0.3,0.4-0.8,0.8-1.3,1c-0.6,0.2-1.2,0.4-1.8,0.3c-0.8,0-1.6-0.2-2.4-0.6c-0.6-0.4-1.1-0.9-1.4-1.6    C169.5,56.4,169.3,55.6,169.3,54.9L169.3,54.9z M171.8,53.8h3.2c0.1,0,0.1,0,0.2,0v-0.1c0-0.3,0-0.6-0.1-0.8    c-0.1-0.3-0.2-0.6-0.3-0.8c-0.1-0.2-0.3-0.5-0.5-0.6c-0.2-0.2-0.5-0.2-0.7-0.2c-0.4,0-0.8,0.1-1.1,0.4c-0.3,0.2-0.5,0.6-0.6,0.9    c-0.1,0.4-0.2,0.7-0.2,1.1c0,0.1,0,0.1,0,0.2C171.7,53.8,171.7,53.8,171.8,53.8L171.8,53.8z M184.9,53c-0.2-0.6-0.5-1-1-1.4    c-0.4-0.3-0.9-0.5-1.4-0.5c-0.3,0-0.6,0.1-0.9,0.3c-0.2,0.2-0.3,0.4-0.3,0.7c0,0.3,0.1,0.6,0.4,0.8c0.3,0.2,0.6,0.4,1,0.5    c0.4,0.1,0.8,0.3,1.2,0.4c0.4,0.1,0.8,0.3,1.2,0.5c0.4,0.2,0.7,0.4,1,0.8c0.3,0.4,0.4,0.8,0.4,1.3c0,0.5-0.1,1.1-0.4,1.5    c-0.3,0.4-0.7,0.7-1.2,0.9c-0.5,0.2-1.1,0.3-1.6,0.3s-1-0.1-1.4-0.3c-0.4-0.1-0.7-0.3-1-0.6c-0.1-0.1-0.1-0.1-0.2-0.1    c0,0-0.1,0-0.1,0.1l-0.2,0.5c0,0.1-0.1,0.1-0.1,0.1c-0.1,0-0.1,0.1-0.2,0h-0.6c-0.1,0-0.1,0-0.2-0.1c0-0.1,0-0.1,0-0.2v-2.8    c0-0.1,0-0.1,0-0.2c0,0,0.1-0.1,0.2-0.1h0.7c0.1,0,0.2,0,0.2,0.1c0,0,0.1,0.1,0.1,0.2c0.1,0.4,0.3,0.8,0.6,1.1    c0.2,0.3,0.5,0.5,0.9,0.6c0.4,0.1,0.7,0.2,1.1,0.2s0.8-0.1,1.1-0.3c0.3-0.2,0.4-0.5,0.4-0.9c0-0.3-0.1-0.6-0.4-0.8    c-0.3-0.2-0.6-0.4-1-0.5c-0.4-0.1-0.8-0.2-1.2-0.4c-0.4-0.1-0.8-0.3-1.2-0.5c-0.4-0.2-0.7-0.5-0.9-0.8c-0.3-0.4-0.4-0.9-0.4-1.4    c0-0.5,0.1-0.9,0.4-1.4c0.2-0.4,0.6-0.7,1-0.9c0.4-0.2,0.9-0.3,1.4-0.3c0.9,0,1.7,0.3,2.5,0.9c0.1,0.1,0.1,0.1,0.2,0.1    c0,0,0.1,0,0.1-0.2l0.2-0.5c0-0.1,0.1-0.1,0.1-0.1c0.1,0,0.1,0,0.2,0h0.6c0.1,0,0.2,0.1,0.2,0.2v2.7c0,0.1,0,0.1,0,0.2    c-0.1,0-0.1,0-0.2,0h-0.7c-0.1,0-0.2,0-0.2-0.1C185,53.2,185,53.1,184.9,53L184.9,53z M193.7,53c-0.2-0.6-0.5-1-1-1.4    c-0.4-0.3-0.9-0.5-1.4-0.5c-0.3,0-0.6,0.1-0.9,0.3c-0.2,0.2-0.3,0.4-0.3,0.7c0,0.3,0.1,0.6,0.4,0.8c0.3,0.2,0.6,0.4,1,0.5    c0.4,0.1,0.8,0.3,1.2,0.4c0.4,0.1,0.8,0.3,1.2,0.5c0.4,0.2,0.7,0.4,1,0.8c0.3,0.4,0.4,0.8,0.4,1.3c0,0.5-0.1,1.1-0.4,1.5    c-0.3,0.4-0.7,0.7-1.2,0.9c-0.5,0.2-1.1,0.3-1.6,0.3s-1-0.1-1.4-0.3c-0.4-0.1-0.7-0.3-1-0.6c0-0.1-0.1-0.1-0.2-0.1    c0,0-0.1,0-0.1,0.1l-0.2,0.5c0,0.1-0.1,0.1-0.1,0.1c-0.1,0-0.1,0.1-0.2,0h-0.6c-0.1,0-0.1,0-0.2-0.1c0-0.1,0-0.1,0-0.2v-2.8    c0-0.1,0-0.1,0-0.2c0,0,0.1-0.1,0.2-0.1h0.7c0.1,0,0.2,0,0.2,0.1c0,0,0.1,0.1,0.1,0.2c0.1,0.4,0.3,0.8,0.6,1.1    c0.2,0.3,0.5,0.5,0.9,0.6c0.4,0.1,0.7,0.2,1.1,0.2s0.8-0.1,1.1-0.3c0.3-0.2,0.4-0.5,0.4-0.9c0-0.3-0.1-0.6-0.4-0.8    c-0.3-0.2-0.6-0.4-0.9-0.5c-0.4-0.1-0.8-0.2-1.2-0.4c-0.4-0.1-0.8-0.3-1.2-0.5c-0.4-0.2-0.7-0.5-0.9-0.8    c-0.3-0.4-0.4-0.9-0.4-1.4c0-0.5,0.1-0.9,0.4-1.4c0.2-0.4,0.6-0.7,1-0.9c0.4-0.2,0.9-0.3,1.4-0.3c0.9,0,1.7,0.3,2.5,0.9    c0.1,0.1,0.1,0.1,0.2,0.1c0,0,0.1,0,0.1-0.2l0.2-0.5c0-0.1,0.1-0.1,0.1-0.1c0.1,0,0.1,0,0.2,0h0.6c0.1,0,0.2,0.1,0.2,0.2v2.7    c0,0.1,0,0.1,0,0.2c-0.1,0-0.1,0-0.2,0h-0.7c-0.1,0-0.2,0-0.2-0.1C193.8,53.2,193.8,53.1,193.7,53L193.7,53z M202.2,51.9h5.2    c0.1,0,0.2,0,0.2,0c0,0.1,0,0.1,0,0.2v0.7c0,0.1,0,0.2,0,0.2s-0.1,0.1-0.2,0.1h-5.2c-0.1,0-0.2,0-0.2,0c0-0.1,0-0.1,0-0.2v-0.7    c0-0.1,0-0.1,0-0.2C202,52,202.1,51.9,202.2,51.9L202.2,51.9z M223,50.3c-0.1-1-0.7-2.1-1.7-2.5c-0.5-0.2-1-0.3-1.5-0.3    c-0.6-0.1-1.3,0.1-1.8,0.5c-0.4,0.3-0.6,0.7-0.5,1.2c0,0.4,0.1,0.8,0.4,1c0.3,0.3,0.6,0.5,1,0.6c0.4,0.2,0.9,0.3,1.4,0.4    c0.5,0.1,1,0.3,1.5,0.5s1,0.4,1.4,0.7c0.4,0.3,0.8,0.6,1,1.1c0.3,0.5,0.4,1.1,0.4,1.7c0,0.7-0.2,1.5-0.6,2.2    c-0.4,0.6-1,1-1.6,1.3c-0.8,0.3-1.6,0.4-2.6,0.4c-0.6,0-1.2-0.1-1.8-0.3c-0.5-0.2-0.9-0.5-1.3-0.8c-0.1-0.1-0.2-0.2-0.3-0.1    s-0.2,0.2-0.2,0.3l-0.2,0.5c0,0.1-0.1,0.1-0.1,0.2c-0.1,0-0.2,0-0.3,0H215c-0.1,0-0.2,0-0.3-0.1c0,0-0.1-0.1-0.1-0.2v-4    c0-0.1,0-0.2,0.1-0.2c0.1,0,0.2-0.1,0.3,0h0.6c0.1,0,0.2,0,0.2,0.1c0,0.1,0.1,0.2,0.1,0.2c0.1,0.5,0.2,1,0.5,1.5    c0.3,0.5,0.7,0.9,1.2,1.2c0.6,0.3,1.2,0.5,1.8,0.5c0.6,0,1.1-0.1,1.6-0.3c0.4-0.2,0.7-0.4,0.9-0.8c0.2-0.3,0.3-0.6,0.3-1    c0-0.4-0.1-0.8-0.4-1.1s-0.6-0.5-1-0.7c-0.5-0.2-0.9-0.3-1.4-0.5c-0.5-0.1-1-0.3-1.5-0.4c-0.5-0.1-1-0.4-1.4-0.6    c-0.4-0.2-0.8-0.6-1-1c-0.3-0.5-0.4-1.1-0.4-1.6s0.1-1.1,0.3-1.6c0.2-0.4,0.5-0.8,0.9-1.1s0.8-0.5,1.3-0.6c0.5-0.1,1-0.2,1.5-0.2    s1,0.1,1.5,0.3c0.4,0.2,0.9,0.4,1.2,0.7c0.1,0.1,0.2,0.1,0.3,0.1c0.1,0,0.1-0.1,0.2-0.2l0.2-0.5l0.1-0.1c0,0,0.1,0,0.2,0h0.7    c0.1,0,0.2,0,0.2,0.1c0,0.1,0.1,0.2,0.1,0.2v3.7c0,0.1,0,0.2-0.1,0.2s-0.2,0-0.3,0h-0.5c-0.2,0-0.3,0-0.3-0.1    C223,50.6,223,50.5,223,50.3L223,50.3z M226.9,56.5v-4.7c0-0.1,0-0.2,0-0.2s-0.1-0.1-0.2-0.1h-0.9c-0.1,0-0.2,0-0.2,0    s-0.1-0.1-0.1-0.2v-0.6c0-0.1,0-0.2,0-0.3c0.1,0,0.2-0.1,0.2-0.1h3c0.1,0,0.2,0,0.3,0c0,0,0.1,0.1,0.1,0.2v5.7    c0,0.5,0.1,0.9,0.3,1.3c0.2,0.3,0.6,0.5,1,0.5c0.4,0,0.8-0.1,1.2-0.4c0.4-0.3,0.6-0.6,0.8-1.1c0.2-0.5,0.3-1,0.3-1.5v-3.3    c0-0.1,0-0.2-0.1-0.2c-0.1,0-0.2-0.1-0.2-0.1h-0.8c-0.1,0-0.1,0-0.2,0c0,0-0.1-0.1-0.1-0.2v-0.6c0-0.1,0-0.1,0-0.2    c0,0,0.1-0.1,0.2-0.1h3.1c0.1,0,0.2,0,0.2,0.1c0,0.1,0,0.1,0,0.2v7c0,0.1,0,0.2,0,0.2c0.1,0,0.2,0.1,0.3,0h0.9c0.1,0,0.1,0,0.2,0    c0.1,0,0.1,0.1,0.1,0.2v0.8c0,0.1,0,0.2,0,0.2s-0.1,0.1-0.2,0.1h-3c-0.1,0-0.2,0-0.2-0.1c0-0.1-0.1-0.2,0-0.3v-0.9    c0-0.1,0-0.1-0.1-0.2c0,0-0.1,0-0.2,0.1c-0.3,0.4-0.6,0.8-1,1c-0.5,0.3-1.1,0.4-1.7,0.4c-0.6,0-1.1-0.1-1.6-0.3    c-0.4-0.2-0.7-0.5-0.9-0.9C227,57.5,226.9,57,226.9,56.5L226.9,56.5z M243.4,53c-0.2-0.6-0.5-1-1-1.4c-0.4-0.3-0.9-0.5-1.4-0.5    c-0.3,0-0.6,0.1-0.9,0.3c-0.2,0.2-0.3,0.4-0.3,0.7c0,0.3,0.1,0.6,0.4,0.8c0.3,0.2,0.6,0.4,1,0.5c0.4,0.1,0.8,0.3,1.2,0.4    c0.4,0.1,0.8,0.3,1.2,0.5c0.4,0.2,0.7,0.4,1,0.8c0.3,0.4,0.4,0.8,0.4,1.3c0,0.5-0.1,1.1-0.4,1.5c-0.3,0.4-0.7,0.7-1.2,0.9    c-0.5,0.2-1.1,0.3-1.6,0.3s-1-0.1-1.4-0.3c-0.4-0.1-0.7-0.3-1-0.6c-0.1-0.1-0.1-0.1-0.2-0.1c0,0-0.1,0-0.1,0.1l-0.2,0.5    c0,0.1-0.1,0.1-0.1,0.1c-0.1,0-0.1,0.1-0.2,0h-0.6c-0.1,0-0.1,0-0.2-0.1c0-0.1,0-0.1,0-0.2v-2.8c0-0.1,0-0.1,0-0.2    c0,0,0.1-0.1,0.2-0.1h0.7c0.1,0,0.2,0,0.2,0.1c0,0,0.1,0.1,0.1,0.2c0.1,0.4,0.3,0.8,0.6,1.1c0.2,0.3,0.5,0.5,0.9,0.6    c0.4,0.1,0.7,0.2,1.1,0.2c0.4,0,0.8-0.1,1.1-0.3c0.3-0.2,0.4-0.5,0.4-0.9c0-0.3-0.1-0.6-0.4-0.8c-0.3-0.2-0.6-0.4-1-0.5    c-0.4-0.1-0.8-0.2-1.2-0.4c-0.4-0.1-0.8-0.3-1.2-0.5c-0.4-0.2-0.7-0.5-0.9-0.8c-0.3-0.4-0.4-0.9-0.4-1.4c0-0.5,0.1-0.9,0.4-1.4    c0.2-0.4,0.6-0.7,1-0.9c0.4-0.2,0.9-0.3,1.4-0.3c0.9,0,1.7,0.3,2.5,0.9c0.1,0.1,0.1,0.1,0.2,0.1c0,0,0.1,0,0.1-0.2l0.2-0.5    c0-0.1,0.1-0.1,0.1-0.1c0.1,0,0.1,0,0.2,0h0.6c0.1,0,0.2,0.1,0.2,0.2v2.7c0,0.1,0,0.1,0,0.2c-0.1,0-0.1,0-0.2,0h-0.7    c-0.1,0-0.2,0-0.2-0.1C243.4,53.2,243.4,53.1,243.4,53L243.4,53z M251.9,57.4c-0.1,0.3-0.3,0.6-0.5,0.9c-0.2,0.3-0.5,0.5-0.8,0.7    c-0.4,0.2-0.8,0.3-1.3,0.2c-0.6,0.1-1.1-0.1-1.5-0.5c-0.3-0.4-0.5-0.9-0.5-1.4v-5.5c0-0.1,0-0.2,0-0.2c-0.1-0.1-0.1-0.1-0.2-0.1    h-1c-0.1,0-0.2,0-0.2,0c0-0.1-0.1-0.1,0-0.2v-0.7c0-0.1,0-0.2,0-0.2c0.1,0,0.1,0,0.2,0c0.3,0,0.5,0,0.8-0.1    c0.2,0,0.4-0.1,0.6-0.3c0.2-0.2,0.4-0.4,0.5-0.7c0.2-0.4,0.3-0.8,0.4-1.2c0-0.1,0-0.1,0.1-0.2c0,0,0.1-0.1,0.2-0.1h0.6    c0.2,0,0.2,0.1,0.2,0.2v2.1c0,0.1,0,0.2,0.1,0.2c0.1,0,0.2,0.1,0.2,0h1.8c0.1,0,0.1,0,0.2,0c0,0.1,0.1,0.1,0,0.2v0.7    c0,0.1,0,0.2-0.1,0.2c-0.1,0-0.1,0-0.2,0h-1.7c-0.1,0-0.2,0-0.2,0s-0.1,0.1-0.1,0.2v5.2c0,0.2,0,0.5,0.2,0.7    c0.1,0.1,0.3,0.2,0.5,0.2s0.4-0.1,0.6-0.2c0.2-0.2,0.4-0.4,0.5-0.6c0-0.1,0.1-0.1,0.1-0.1s0.1,0,0.2,0l0.4,0.2    c0.1,0,0.1,0.1,0.2,0.1C252,57.3,252,57.3,251.9,57.4L251.9,57.4z M253,57c0-0.5,0.2-1.1,0.5-1.5c0.4-0.5,0.9-0.8,1.5-1    c0.8-0.3,1.6-0.4,2.5-0.4h0.7c0.1,0,0.1,0,0.2,0c0,0,0-0.1,0-0.2v-0.9c0-0.3,0-0.6-0.1-0.9c-0.1-0.2-0.3-0.5-0.5-0.6    c-0.3-0.2-0.6-0.2-0.9-0.2c-0.2,0-0.4,0-0.7,0.1c-0.2,0-0.3,0.1-0.5,0.2c-0.1,0.1-0.2,0.2-0.2,0.2c0,0.1,0,0.2,0.1,0.2    c0.1,0.1,0.1,0.1,0.2,0.2s0.1,0.3,0.1,0.5c0,0.3-0.1,0.6-0.3,0.8c-0.2,0.2-0.5,0.3-0.8,0.3c-0.3,0-0.6-0.1-0.8-0.2    c-0.3-0.2-0.4-0.5-0.4-0.8c0-0.4,0.1-0.7,0.3-1s0.5-0.5,0.9-0.7c0.4-0.2,0.8-0.3,1.2-0.4c0.5-0.1,0.9-0.1,1.4-0.1    c0.6,0,1.2,0.1,1.8,0.4c0.4,0.2,0.7,0.5,0.9,1c0.2,0.4,0.3,0.9,0.3,1.4v4.6c0,0.1,0,0.3,0.1,0.4c0.1,0.1,0.2,0.1,0.3,0.1    s0.2,0,0.4-0.1c0.2-0.1,0.3-0.2,0.4-0.4c0.1-0.1,0.1-0.1,0.2-0.1l0.5,0.3c0.1,0,0.1,0.1,0.1,0.2l0,0c-0.1,0.2-0.3,0.5-0.5,0.6    c-0.4,0.4-1,0.6-1.5,0.6l0,0c-0.3,0-0.6,0-0.9-0.2c-0.2-0.1-0.4-0.2-0.5-0.4c-0.1-0.1-0.2-0.3-0.3-0.5c0-0.1-0.1-0.2-0.1-0.2    s-0.1,0-0.2,0.1c-0.1,0.2-0.3,0.3-0.5,0.5s-0.5,0.3-0.8,0.4c-0.4,0.1-0.9,0.2-1.3,0.2c-0.7,0-1.4-0.2-2-0.6    C253.2,58.3,253,57.6,253,57L253,57z M255.4,56.7c0,0.4,0.1,0.7,0.4,1c0.7,0.5,1.6,0.4,2.3-0.2c0.3-0.4,0.5-1,0.5-1.6v-0.8    c0-0.1,0-0.2-0.1-0.2l0,0h-0.6c-0.4,0-0.9,0.1-1.3,0.2c-0.3,0.1-0.6,0.3-0.7,0.6C255.5,56.1,255.4,56.4,255.4,56.7L255.4,56.7z     M264.2,47.4c0-0.3,0.1-0.7,0.4-0.9c0.2-0.2,0.6-0.3,0.9-0.3c0.3,0,0.7,0.1,0.9,0.3c0.3,0.2,0.4,0.5,0.4,0.9    c0,0.3-0.1,0.6-0.4,0.9c-0.2,0.2-0.6,0.3-0.9,0.3s-0.7-0.1-0.9-0.3C264.3,48,264.2,47.7,264.2,47.4L264.2,47.4z M264.3,51.5h-1.1    c-0.1,0-0.2,0-0.2-0.1v-0.1v-0.7c0-0.1,0.1-0.2,0.2-0.2h3.3h0.1v0.1v7.2c0,0.1,0,0.1,0,0.2h0.1h1.1c0.1,0,0.1,0,0.2,0v0.1v0.8    c0,0.1,0,0.1,0,0.2c0,0-0.1,0-0.2,0h-4.7c-0.1,0-0.1,0-0.2,0c0,0,0-0.1,0-0.2V58c0-0.1,0-0.2,0-0.2c0.1,0,0.1,0,0.2,0h1    c0.1,0,0.1,0,0.2,0c0-0.1,0-0.1,0-0.2v-6C264.5,51.6,264.4,51.5,264.3,51.5L264.3,51.5z M270.4,51.5h-1c-0.1,0-0.2,0-0.2-0.1    s0-0.1,0-0.2v-0.6c0-0.1,0-0.1,0.1-0.2c0.1,0,0.1-0.1,0.2-0.1h3c0.1,0,0.2,0,0.2,0.1c0.1,0.1,0.1,0.2,0.1,0.2v0.8    c0,0.2,0,0.3,0,0.3s0.1,0,0.2-0.1c0.3-0.4,0.6-0.8,1.1-1c0.5-0.3,1.1-0.5,1.7-0.4c0.6,0,1.1,0.1,1.6,0.3c0.4,0.2,0.7,0.5,0.9,0.9    c0.2,0.5,0.3,1,0.3,1.5v4.6c0,0.1,0,0.2,0,0.3c0,0,0.1,0.1,0.3,0.1h0.9c0.1,0,0.2,0,0.2,0.1c0,0.1,0.1,0.1,0,0.2v0.5    c0,0.1,0,0.2-0.1,0.2c-0.1,0-0.2,0-0.3,0h-4.4c-0.1,0-0.2,0-0.2-0.1c0-0.1,0-0.1,0-0.2V58c0-0.1,0-0.1,0-0.2c0,0,0.1-0.1,0.2-0.1    h0.7c0.1,0,0.2,0,0.3,0c0.1-0.1,0.1-0.2,0.1-0.3v-4.5c0-0.4-0.1-0.9-0.3-1.2c-0.2-0.3-0.6-0.5-1-0.4c-0.4,0-0.8,0.1-1.2,0.4    c-0.4,0.3-0.6,0.6-0.8,1c-0.2,0.5-0.3,1-0.3,1.5v3.3c0,0.1,0,0.3,0.2,0.3h0.1h0.6c0.1,0,0.2,0,0.2,0s0.1,0.1,0.1,0.2v0.7    c0,0.1,0,0.2-0.1,0.2s-0.1,0.1-0.2,0h-4.4c-0.1,0-0.2,0-0.2-0.1c0-0.1,0-0.2,0-0.2V58c0-0.1,0-0.2,0.1-0.2s0.2-0.1,0.2,0h0.9    c0.1,0,0.2,0,0.3,0c0,0,0.1-0.1,0.1-0.2v-6c0-0.1,0-0.2-0.1-0.2C270.5,51.5,270.4,51.5,270.4,51.5L270.4,51.5z M281.1,57    c0-0.5,0.2-1.1,0.5-1.5c0.4-0.5,0.9-0.8,1.5-1c0.8-0.3,1.6-0.4,2.5-0.4h0.7c0.1,0,0.1,0,0.2,0c0,0,0-0.1,0-0.2v-0.9    c0-0.3,0-0.6-0.1-0.9c-0.1-0.2-0.3-0.5-0.5-0.6c-0.3-0.2-0.6-0.2-0.9-0.2c-0.2,0-0.4,0-0.7,0.1c-0.2,0-0.3,0.1-0.5,0.2    c-0.1,0.1-0.2,0.2-0.2,0.2c0,0.1,0,0.2,0.1,0.2c0.1,0.1,0.1,0.1,0.2,0.2c0.1,0.1,0.1,0.3,0.1,0.5c0,0.3-0.1,0.6-0.3,0.8    c-0.2,0.2-0.5,0.3-0.8,0.3s-0.6-0.1-0.8-0.2c-0.3-0.2-0.4-0.5-0.4-0.8c0-0.4,0.1-0.7,0.3-1c0.2-0.3,0.5-0.5,0.9-0.7    c0.4-0.2,0.8-0.3,1.2-0.4c0.5-0.1,0.9-0.1,1.4-0.1c0.6,0,1.2,0.1,1.8,0.4c0.4,0.2,0.7,0.5,0.9,1c0.2,0.4,0.3,0.9,0.3,1.4v4.6    c0,0.1,0,0.3,0.1,0.4c0.1,0.1,0.2,0.1,0.3,0.1s0.2,0,0.4-0.1c0.2-0.1,0.3-0.2,0.4-0.4c0.1-0.1,0.1-0.1,0.2-0.1l0.5,0.3    c0.1,0,0.1,0.1,0.1,0.2l0,0c-0.1,0.2-0.3,0.5-0.5,0.6c-0.4,0.4-1,0.6-1.5,0.6l0,0c-0.3,0-0.6,0-0.9-0.2c-0.2-0.1-0.4-0.2-0.5-0.4    c-0.1-0.1-0.2-0.3-0.3-0.5c0-0.1-0.1-0.2-0.1-0.2s-0.1,0-0.2,0.1c-0.1,0.2-0.3,0.3-0.5,0.5c-0.2,0.2-0.5,0.3-0.8,0.4    c-0.4,0.1-0.9,0.2-1.3,0.2c-0.7,0-1.4-0.2-2-0.6C281.3,58.3,281,57.6,281.1,57L281.1,57z M283.4,56.7c0,0.4,0.1,0.7,0.4,1    c0.7,0.5,1.6,0.4,2.3-0.2c0.3-0.4,0.5-1,0.5-1.6v-0.8c0-0.1,0-0.2-0.1-0.2l0,0h-0.6c-0.4,0-0.9,0.1-1.3,0.2    c-0.3,0.1-0.6,0.3-0.7,0.6C283.5,56.1,283.4,56.4,283.4,56.7L283.4,56.7z M294.4,54.7c0,0.6,0.1,1.1,0.3,1.6    c0.2,0.5,0.4,0.9,0.7,1.2c0.3,0.3,0.7,0.5,1.1,0.5c0.4,0,0.8-0.2,1-0.5c0.3-0.3,0.6-0.7,0.7-1.2c0.3-1.1,0.3-2.3,0-3.4    c-0.1-0.4-0.4-0.9-0.7-1.2c-0.3-0.3-0.6-0.5-1-0.5c-0.4,0-0.8,0.2-1.1,0.5c-0.3,0.3-0.6,0.7-0.7,1.2    C294.5,53.5,294.4,54.1,294.4,54.7z M291,47.2c-0.1,0-0.1,0-0.1,0s0-0.1,0-0.2v-0.8V46h0.1h3.3c0.1,0,0.1,0,0.2,0v0.1v5.4    c0,0.1,0,0.2,0,0.2s0,0,0.1-0.1c0.3-0.5,0.6-0.9,1.1-1.2c0.5-0.3,1-0.4,1.6-0.4s1.3,0.2,1.8,0.5c0.6,0.4,1,0.9,1.3,1.5    c0.3,0.8,0.5,1.6,0.5,2.5s-0.1,1.7-0.5,2.5c-0.3,0.6-0.8,1.2-1.3,1.5c-0.5,0.3-1.2,0.5-1.8,0.5c-0.5,0-1-0.1-1.5-0.4    c-0.4-0.3-0.8-0.7-1-1.1c-0.1-0.1-0.1-0.1-0.1-0.1s0,0.1,0,0.3v1c0,0.1,0,0.2,0,0.2c0,0.1-0.1,0.1-0.2,0.1h-3.2    c-0.1,0-0.1,0-0.2,0c0,0,0-0.1,0-0.2V58c0-0.1,0-0.1,0-0.1s0.1,0,0.2,0h1.1c0.1,0,0.1,0,0.2,0c0,0,0-0.1,0-0.2V47.3    c0-0.1,0-0.2-0.1-0.2H291V47.2z M303.4,47.4c0-0.3,0.1-0.7,0.4-0.9c0.2-0.2,0.6-0.3,0.9-0.3s0.7,0.1,0.9,0.3    c0.3,0.2,0.4,0.5,0.4,0.9c0,0.3-0.1,0.6-0.4,0.9c-0.2,0.2-0.6,0.3-0.9,0.3s-0.7-0.1-0.9-0.3C303.5,48,303.4,47.7,303.4,47.4z     M303.6,51.5h-1.1c-0.1,0-0.2,0-0.2-0.1v-0.1v-0.7c0-0.1,0.1-0.2,0.2-0.2h3.3h0.1v0.1v7.2c0,0.1,0,0.1,0,0.2h0.1h1.1    c0.1,0,0.1,0,0.2,0v0.1v0.8c0,0.1,0,0.1,0,0.2c0,0-0.1,0-0.2,0h-4.7c-0.1,0-0.1,0-0.2,0c0,0,0-0.1,0-0.2V58c0-0.1,0-0.2,0-0.2    c0.1,0,0.1,0,0.2,0h1c0.1,0,0.1,0,0.2,0c0-0.1,0-0.1,0-0.2v-6C303.7,51.6,303.7,51.5,303.6,51.5z M309.2,47.2h-0.8    c-0.2,0-0.3,0-0.3-0.1c0-0.1,0-0.2,0-0.3v-0.4c0-0.2,0-0.3,0.1-0.3s0.2-0.1,0.3,0h2.8c0.1,0,0.2,0,0.3,0c0.1,0,0.1,0.1,0.1,0.3    v11.2c0,0.1,0,0.2,0,0.3c0,0,0.1,0.1,0.3,0.1h0.9c0.1,0,0.1,0,0.2,0c0,0,0.1,0.1,0.1,0.2v0.6c0,0.2,0,0.3-0.1,0.3s-0.2,0.1-0.3,0    h-4.4c-0.1,0-0.2,0-0.3,0c0,0-0.1-0.1-0.1-0.2v-0.6c0-0.1,0-0.2,0-0.2s0.1-0.1,0.2-0.1h0.9c0.2,0,0.3,0,0.3,0s0-0.1,0-0.3V47.5    c0-0.1,0-0.2-0.1-0.3C309.4,47.2,309.3,47.1,309.2,47.2z M315.4,47.4c0-0.3,0.1-0.7,0.4-0.9c0.2-0.2,0.6-0.3,0.9-0.3    s0.7,0.1,0.9,0.3c0.3,0.2,0.4,0.5,0.4,0.9c0,0.3-0.1,0.6-0.4,0.9c-0.2,0.2-0.6,0.3-0.9,0.3s-0.7-0.1-0.9-0.3    C315.6,48,315.4,47.7,315.4,47.4z M315.6,51.5h-1.1c-0.1,0-0.2,0-0.2-0.1v-0.1v-0.7c0-0.1,0.1-0.2,0.2-0.2c0,0,0,0,0.1,0h3.3h0.1    v0.1v7.2c0,0.1,0,0.1,0,0.2h0.1h1.1c0.1,0,0.1,0,0.2,0v0.1v0.8c0,0.1,0,0.1,0,0.2c0,0-0.1,0-0.2,0h-4.7c-0.1,0-0.1,0-0.2,0    c0,0,0-0.1,0-0.2V58c0-0.1,0-0.2,0-0.2c0.1,0,0.1,0,0.2,0h1c0.1,0,0.1,0,0.2,0c0-0.1,0-0.1,0-0.2v-6    C315.8,51.6,315.7,51.5,315.6,51.5z M325.9,57.4c-0.1,0.3-0.3,0.6-0.5,0.9c-0.2,0.3-0.5,0.5-0.8,0.7c-0.4,0.2-0.8,0.3-1.3,0.2    c-0.6,0.1-1.1-0.1-1.5-0.5c-0.3-0.4-0.5-0.9-0.5-1.4v-5.5c0-0.1,0-0.2,0-0.2c-0.1-0.1-0.1-0.1-0.2-0.1h-1c-0.1,0-0.2,0-0.2,0    c0-0.1-0.1-0.1,0-0.2v-0.7c0-0.1,0-0.2,0-0.2c0.1,0,0.1,0,0.2,0c0.3,0,0.5,0,0.8-0.1c0.2,0,0.4-0.1,0.6-0.3    c0.2-0.2,0.4-0.4,0.5-0.7c0.2-0.4,0.3-0.8,0.4-1.2c0-0.1,0-0.1,0.1-0.2c0,0,0.1-0.1,0.2-0.1h0.6c0.2,0,0.2,0.1,0.2,0.2v2.1    c0,0.1,0,0.2,0.1,0.2c0.1,0,0.2,0.1,0.2,0h1.8c0.1,0,0.1,0,0.2,0c0,0.1,0.1,0.1,0,0.2v0.7c0,0.1,0,0.2-0.1,0.2    c-0.1,0-0.1,0-0.2,0h-1.7c-0.1,0-0.2,0-0.2,0s-0.1,0.1-0.1,0.2v5.2c0,0.2,0,0.5,0.2,0.7c0.1,0.1,0.3,0.2,0.5,0.2    c0.2,0,0.4-0.1,0.6-0.2c0.2-0.2,0.4-0.4,0.5-0.6c0-0.1,0.1-0.1,0.1-0.1s0.1,0,0.2,0l0.4,0.2c0.1,0,0.1,0.1,0.2,0.1    C326,57.3,326,57.3,325.9,57.4z M326.2,61.1c0-0.3,0.1-0.6,0.2-0.9c0.1-0.2,0.3-0.4,0.5-0.6c0.4-0.3,1-0.3,1.5,0    c0.3,0.3,0.4,0.8,0.2,1.2c-0.1,0.1-0.1,0.2-0.2,0.3c-0.1,0.1-0.2,0.1-0.3,0.2c-0.1,0-0.2,0.1-0.2,0.1c-0.1,0.1-0.1,0.1-0.1,0.2    c0,0.2,0.1,0.3,0.2,0.4c0.2,0.1,0.4,0.2,0.6,0.2c0.2,0,0.5-0.1,0.7-0.2c0.3-0.2,0.5-0.4,0.7-0.7c0.3-0.4,0.6-0.9,0.7-1.3l0.2-0.5    c0.1-0.1,0.1-0.3,0.1-0.4c0-0.1-0.1-0.3-0.1-0.4l-3.3-7c0-0.1-0.1-0.2-0.2-0.3c-0.1,0-0.2-0.1-0.3-0.1h-0.7c-0.1,0-0.2,0-0.2,0    c-0.1-0.1-0.1-0.1-0.1-0.2v-0.5c0-0.1,0-0.1,0.1-0.1c0.1,0,0.1,0,0.2,0h4.5c0.1,0,0.2,0,0.3,0.1c0.1,0.1,0.1,0.2,0.1,0.3v0.4    c0,0.1,0,0.2-0.1,0.3c-0.1,0.1-0.2,0.1-0.3,0.1h-0.7c-0.1,0-0.2,0-0.3,0c0,0,0,0.1,0,0.2l2,4.2c0.1,0.2,0.1,0.3,0.2,0.5    c0,0.1,0.1,0.2,0.1,0.2s0.1-0.1,0.1-0.2c0-0.1,0.1-0.3,0.2-0.5l1.6-4.2c0-0.1,0-0.2,0-0.2s-0.1,0-0.3,0h-0.5    c-0.1,0-0.2,0-0.2-0.1c0-0.1,0-0.2,0-0.2v-0.5c0-0.1,0-0.2,0.1-0.3c0.1-0.1,0.2-0.1,0.3-0.1h3.2c0.1,0,0.1,0,0.2,0    c0,0,0.1,0.1,0.1,0.2v0.6c0,0.1,0,0.2,0,0.3c0,0.1-0.1,0.1-0.2,0.1h-0.6c-0.2,0-0.3,0-0.3,0.1c0,0.1-0.1,0.2-0.1,0.3l-3.6,8.7    c-0.2,0.6-0.6,1.2-1,1.7c-0.3,0.4-0.7,0.7-1.1,0.9s-0.8,0.2-1.2,0.2c-0.4,0-0.8-0.1-1.2-0.3c-0.3-0.2-0.6-0.5-0.8-0.8    C326.3,61.9,326.2,61.5,326.2,61.1L326.2,61.1z M343.4,51.9h5.2c0.1,0,0.2,0,0.2,0c0,0.1,0,0.1,0,0.2v0.7c0,0.1,0,0.2,0,0.2    s-0.1,0.1-0.2,0.1h-5.2c-0.1,0-0.2,0-0.2,0c0-0.1,0-0.1,0-0.2v-0.7c0-0.1,0-0.1,0-0.2C343.2,52,343.3,51.9,343.4,51.9L343.4,51.9    z M356.9,47.8h-1.2c-0.1,0-0.1,0-0.2,0c0-0.1-0.1-0.2,0-0.2v-0.7c0-0.1,0-0.2,0-0.2c0.1,0,0.2-0.1,0.3-0.1h5.4c0.1,0,0.2,0,0.3,0    c0,0,0.1,0.1,0.1,0.3v0.6c0,0.1,0,0.2-0.1,0.3c-0.1,0-0.2,0.1-0.3,0H360c-0.1,0-0.2,0-0.3,0.1c-0.1,0-0.1,0.1-0.1,0.3v9.3    c0,0.1,0,0.2,0.1,0.3c0.1,0,0.2,0.1,0.3,0h2.7c0.6,0,1.1-0.1,1.6-0.3c0.4-0.2,0.7-0.6,0.9-1c0.2-0.6,0.3-1.2,0.3-1.8    c0-0.1,0-0.1,0-0.2c0,0,0.1-0.1,0.2-0.1h0.6c0.1,0,0.2,0,0.2,0s0.1,0.1,0.1,0.2v4.1c0,0.1,0,0.2,0,0.3c0,0-0.1,0.1-0.3,0.1h-10.7    c-0.1,0-0.2,0-0.3,0c0,0-0.1-0.1-0.1-0.3V58c0-0.1,0-0.1,0-0.2c0,0,0.1-0.1,0.2-0.1h1.2c0.1,0,0.2,0,0.3-0.1    c0.1,0,0.1-0.1,0.1-0.3v-9.2c0-0.1,0-0.2-0.1-0.3C357.1,47.8,357,47.8,356.9,47.8z M368,54.9c0-0.8,0.1-1.6,0.5-2.5    c0.3-0.7,0.8-1.3,1.4-1.7c0.7-0.4,1.5-0.6,2.5-0.6c0.5,0,1.1,0.1,1.6,0.3c0.4,0.2,0.8,0.4,1.1,0.7s0.5,0.6,0.7,1    c0.2,0.4,0.3,0.8,0.4,1.2c0.1,0.4,0.1,0.8,0.1,1.2c0,0.1,0,0.2-0.1,0.2s-0.2,0-0.2,0h-5.4c-0.1,0-0.1,0-0.2,0    c0,0.1-0.1,0.1,0,0.2c0,0.5,0.1,1,0.2,1.5c0.1,0.4,0.4,0.8,0.7,1.1s0.8,0.4,1.2,0.4c0.5,0,1-0.2,1.4-0.5c0.4-0.4,0.7-0.8,0.9-1.3    c0,0,0-0.1,0.1-0.1c0,0,0.1-0.1,0.2-0.1h0.9c0.1,0,0.2,0,0.2,0v0.1c-0.1,0.6-0.4,1.1-0.7,1.5c-0.3,0.4-0.8,0.8-1.3,1    c-0.6,0.2-1.2,0.4-1.8,0.3c-0.8,0-1.6-0.2-2.4-0.6c-0.6-0.4-1.1-0.9-1.4-1.6C368.2,56.4,368,55.6,368,54.9z M370.6,53.8h3.2    c0.1,0,0.1,0,0.2,0v-0.1c0-0.3,0-0.6-0.1-0.8c-0.1-0.3-0.2-0.6-0.3-0.8c-0.1-0.2-0.3-0.5-0.5-0.6c-0.2-0.2-0.5-0.2-0.7-0.2    c-0.4,0-0.8,0.1-1.1,0.4c-0.3,0.2-0.5,0.6-0.6,0.9c-0.1,0.4-0.2,0.7-0.2,1.1c0,0.1,0,0.1,0,0.2C370.4,53.8,370.5,53.8,370.6,53.8    z M379.8,53.2c0,0.4,0,0.7,0.1,1c0.1,0.3,0.2,0.6,0.4,0.8c0.2,0.2,0.5,0.3,0.9,0.3c0.3,0,0.6-0.1,0.8-0.3    c0.2-0.2,0.4-0.5,0.4-0.8c0.1-0.3,0.1-0.7,0.1-1c0-0.4,0-0.7-0.1-1c-0.1-0.3-0.2-0.6-0.4-0.8c-0.2-0.2-0.5-0.3-0.8-0.3    s-0.6,0.1-0.9,0.3c-0.2,0.2-0.4,0.5-0.4,0.8C379.9,52.5,379.8,52.8,379.8,53.2z M377.7,53.2c0-0.6,0.1-1.1,0.5-1.6    c0.3-0.5,0.7-0.8,1.2-1c0.6-0.3,1.2-0.4,1.8-0.4c0.5,0,0.9,0.1,1.4,0.2c0.4,0.1,0.8,0.3,1.1,0.6l0.1,0.1L384,51    c0.2-0.3,0.5-0.4,0.9-0.6c0.3-0.1,0.5-0.2,0.8-0.2s0.7,0.1,1,0.2c0.3,0.1,0.5,0.3,0.6,0.5s0.2,0.5,0.2,0.8s-0.1,0.6-0.3,0.8    s-0.5,0.3-0.8,0.3s-0.5-0.1-0.7-0.2s-0.3-0.4-0.3-0.6c0-0.1,0-0.3,0.1-0.4c0-0.1,0.1-0.2,0.2-0.2c0.1-0.1,0.1-0.1,0.1-0.2    s-0.1-0.2-0.2-0.2c-0.2,0-0.4,0.1-0.5,0.1c-0.2,0.1-0.4,0.3-0.5,0.5l-0.1,0.1c0,0.1,0,0.1,0,0.1c0.2,0.4,0.3,0.9,0.3,1.4    c0,0.6-0.1,1.1-0.4,1.6s-0.7,0.8-1.2,1.1c-0.6,0.3-1.2,0.4-1.8,0.4c-0.1,0-0.3,0-0.4,0s-0.2,0-0.4,0c-0.1,0-0.2,0-0.2,0    c-0.1,0-0.1,0-0.2,0.1c-0.2,0.1-0.4,0.2-0.5,0.3c-0.1,0.1-0.2,0.2-0.2,0.4c0,0.2,0.1,0.4,0.4,0.5c0.3,0.1,0.6,0.1,1,0.1h0.4    c0.2,0,0.4,0,0.6,0h0.6c0.2,0,0.4,0,0.5,0c0.4,0,0.8,0,1.2,0.1c0.3,0.1,0.7,0.2,1,0.4c0.3,0.2,0.5,0.5,0.7,0.8    c0.2,0.4,0.3,0.9,0.2,1.3c0,0.6-0.2,1.2-0.6,1.7c-0.4,0.5-1,0.8-1.6,1c-1.8,0.5-3.8,0.5-5.5-0.2c-0.7-0.2-1.1-0.9-1.1-1.6    c0-0.4,0.1-0.9,0.4-1.2s0.6-0.6,1-0.8c0.1-0.1,0.2-0.1,0.1-0.1s-0.1-0.1-0.2-0.1c-0.2-0.1-0.4-0.3-0.6-0.5    c-0.2-0.2-0.2-0.5-0.2-0.8c0-0.3,0.1-0.7,0.3-0.9c0.3-0.3,0.6-0.5,0.9-0.7c0.1-0.1,0.2-0.1,0.2-0.1c0-0.1-0.1-0.1-0.2-0.1    c-0.4-0.2-0.8-0.6-1-1C377.8,54.2,377.7,53.7,377.7,53.2z M384.3,60.8c0-0.4-0.1-0.7-0.4-1c-0.3-0.3-0.8-0.4-1.2-0.4h-1.8    c-0.2,0-0.3,0-0.5,0c-0.2,0-0.3,0-0.5,0c-0.1,0-0.1,0-0.2,0c0,0-0.1,0-0.1,0.1c-0.2,0.2-0.3,0.4-0.4,0.7c0,0.2-0.1,0.4-0.1,0.6    c0,0.5,0.2,0.9,0.6,1.2c0.5,0.3,1.2,0.5,1.8,0.4c0.4,0,0.9-0.1,1.3-0.2c0.4-0.1,0.7-0.3,1-0.5C384.2,61.4,384.3,61.1,384.3,60.8z     M387.9,57c0-0.5,0.2-1.1,0.5-1.5c0.4-0.5,0.9-0.8,1.5-1c0.8-0.3,1.6-0.4,2.5-0.4h0.7c0.1,0,0.1,0,0.2,0c0,0,0-0.1,0-0.2v-0.9    c0-0.3,0-0.6-0.1-0.9c-0.1-0.2-0.3-0.5-0.5-0.6c-0.3-0.2-0.6-0.2-0.9-0.2c-0.2,0-0.4,0-0.7,0.1c-0.2,0-0.3,0.1-0.5,0.2    c-0.1,0.1-0.2,0.2-0.2,0.2c0,0.1,0,0.2,0.1,0.2c0.1,0.1,0.1,0.1,0.2,0.2c0.1,0.1,0.1,0.3,0.1,0.5c0,0.3-0.1,0.6-0.3,0.8    c-0.2,0.2-0.5,0.3-0.8,0.3s-0.6-0.1-0.8-0.2c-0.3-0.2-0.4-0.5-0.4-0.8c0-0.4,0.1-0.7,0.3-1c0.2-0.3,0.5-0.5,0.9-0.7    c0.4-0.2,0.8-0.3,1.2-0.4c0.5-0.1,0.9-0.1,1.4-0.1c0.6,0,1.2,0.1,1.8,0.4c0.4,0.2,0.7,0.5,0.9,1c0.2,0.4,0.3,0.9,0.3,1.4v4.6    c0,0.1,0,0.3,0.1,0.4c0.1,0.1,0.2,0.1,0.3,0.1c0.1,0,0.2,0,0.4-0.1c0.2-0.1,0.3-0.2,0.4-0.4c0.1-0.1,0.1-0.1,0.2-0.1l0.5,0.3    c0.1,0,0.1,0.1,0.1,0.2l0,0c-0.1,0.2-0.3,0.5-0.5,0.6c-0.4,0.4-1,0.6-1.5,0.6l0,0c-0.3,0-0.6,0-0.9-0.2c-0.2-0.1-0.4-0.2-0.5-0.4    c-0.1-0.1-0.2-0.3-0.3-0.5c0-0.1-0.1-0.2-0.1-0.2s-0.1,0-0.2,0.1c-0.1,0.2-0.3,0.3-0.5,0.5c-0.2,0.2-0.5,0.3-0.8,0.4    c-0.4,0.1-0.9,0.2-1.3,0.2c-0.7,0-1.4-0.2-2-0.6C388.2,58.3,387.9,57.6,387.9,57z M390.4,56.7c0,0.4,0.1,0.7,0.4,1    c0.7,0.5,1.6,0.4,2.3-0.2c0.3-0.4,0.5-1,0.5-1.6v-0.8c0-0.1,0-0.2-0.1-0.2l0,0h-0.6c-0.4,0-0.9,0.1-1.3,0.2    c-0.3,0.1-0.6,0.3-0.7,0.6C390.4,56.1,390.4,56.4,390.4,56.7z M397.8,54.8c0-0.6,0.1-1.2,0.3-1.7c0.2-0.5,0.5-1,0.8-1.4    c0.4-0.4,0.9-0.8,1.4-1c0.6-0.3,1.3-0.4,2-0.4s1.3,0.1,2,0.4c0.5,0.2,0.9,0.5,1.2,0.9c0.3,0.4,0.4,0.8,0.4,1.3    c0,0.4-0.1,0.8-0.4,1s-0.6,0.3-0.9,0.3s-0.6-0.1-0.9-0.3c-0.2-0.2-0.4-0.5-0.4-0.8c0-0.2,0-0.4,0.1-0.5s0.2-0.2,0.3-0.3    c0.1-0.1,0.1-0.2,0.1-0.3c0-0.2-0.1-0.3-0.4-0.5c-0.3-0.1-0.6-0.2-0.9-0.2c-0.5,0-0.9,0.2-1.3,0.5s-0.6,0.8-0.8,1.3    c-0.2,0.6-0.3,1.1-0.3,1.7c0,0.6,0.1,1.1,0.2,1.7c0.1,0.5,0.3,0.9,0.7,1.3c0.3,0.3,0.8,0.5,1.3,0.5c0.5,0,1-0.2,1.4-0.5    c0.4-0.4,0.7-0.8,0.9-1.3c0-0.1,0-0.1,0.1-0.1c0.1,0,0.1,0,0.2,0h0.8c0.1,0,0.2,0,0.2,0v0.1c-0.1,0.6-0.4,1.1-0.8,1.5    c-0.3,0.4-0.8,0.8-1.2,1c-0.5,0.2-1.1,0.4-1.7,0.3c-0.8,0-1.7-0.2-2.5-0.6c-0.6-0.4-1.1-0.9-1.4-1.6    C397.9,56.3,397.7,55.5,397.8,54.8z M406.4,61.1c0-0.3,0.1-0.6,0.2-0.9c0.1-0.2,0.3-0.4,0.5-0.6c0.2-0.1,0.4-0.2,0.7-0.2    c0.3,0,0.6,0.1,0.8,0.3s0.3,0.5,0.3,0.8c0,0.2,0,0.3-0.1,0.5c-0.1,0.1-0.1,0.2-0.2,0.3c-0.1,0.1-0.2,0.1-0.3,0.2    c-0.1,0-0.2,0.1-0.2,0.1c-0.1,0.1-0.1,0.1-0.1,0.2c0,0.2,0.1,0.3,0.2,0.4c0.2,0.1,0.4,0.2,0.6,0.2c0.2,0,0.5-0.1,0.7-0.2    c0.3-0.2,0.5-0.4,0.7-0.7c0.3-0.4,0.6-0.9,0.7-1.3l0.2-0.5c0.1-0.1,0.1-0.3,0.1-0.4c0-0.1-0.1-0.3-0.1-0.4l-3.3-7    c0-0.1-0.1-0.2-0.2-0.3c-0.1-0.1-0.2-0.1-0.3-0.1h-0.7c-0.1,0-0.2,0-0.2,0c-0.1-0.1-0.1-0.1-0.1-0.2v-0.7c0-0.1,0-0.1,0.1-0.1    s0.1,0,0.2,0h4.5c0.1,0,0.2,0,0.3,0.1c0.1,0.1,0.1,0.2,0.1,0.3v0.4c0,0.1,0,0.2-0.1,0.3c-0.1,0.1-0.2,0.1-0.3,0.1h-0.7    c-0.1,0-0.2,0-0.3,0c0,0,0,0.1,0,0.2l2,4.2c0.1,0.2,0.1,0.3,0.2,0.5c0,0.1,0.1,0.2,0.1,0.2s0.1-0.1,0.1-0.2    c0-0.1,0.1-0.3,0.2-0.5l1.6-4.2c0-0.1,0-0.2,0-0.2s-0.1,0-0.3,0h-0.5c-0.1,0-0.2,0-0.2-0.1c0-0.1,0-0.2,0-0.2v-0.5    c0-0.1,0-0.2,0.1-0.3s0.2-0.1,0.3-0.1h3.2c0.1,0,0.1,0,0.2,0c0,0,0.1,0.1,0.1,0.2v0.6c0,0.1,0,0.2,0,0.3c0,0.1-0.1,0.1-0.2,0.1    h-0.6c-0.2,0-0.3,0-0.3,0.1c0,0.1-0.1,0.2-0.1,0.3l-3.6,8.7c-0.2,0.6-0.6,1.2-1,1.7c-0.3,0.4-0.7,0.7-1.1,0.9s-0.8,0.2-1.2,0.2    s-0.8-0.1-1.2-0.3c-0.3-0.2-0.6-0.5-0.8-0.8C406.5,61.9,406.4,61.5,406.4,61.1z"></path>			<path class="st16" d="M166.2,73.3h-1l1.7-4.8h1.3l1.7,4.8h-1l-1.2-3.7l0,0L166.2,73.3z M166.1,71.3h2.5v0.8h-2.5V71.3z     M170.3,73.3v-4.8h3.1v0.9h-2.2v1.1h1.9v0.9h-1.9v2L170.3,73.3z M174.2,73.3v-4.8h3.1v0.9h-2.2v1.1h1.9v0.9h-1.9v2L174.2,73.3z     M179,68.5v4.8h-1v-4.8H179z M179.8,73.3v-4.8h1v3.9h2v0.9H179.8z M184.6,68.5v4.8h-1v-4.8H184.6z M186.2,73.3h-1l1.7-4.8h1.3    l1.7,4.8h-1l-1.2-3.7l0,0L186.2,73.3z M186.1,71.3h2.5v0.8h-2.5V71.3z M189.5,69.3v-0.9h3.9v0.9H192v3.9h-1v-3.9H189.5z     M194.2,73.3v-4.8h3.2v0.9h-2.2v1.1h2v0.9h-2v1.1h2.2v0.9L194.2,73.3L194.2,73.3z M199.8,73.3h-1.7v-4.8h1.7    c0.4,0,0.9,0.1,1.2,0.3s0.6,0.4,0.8,0.8c0.3,0.8,0.3,1.7,0,2.5c-0.2,0.3-0.4,0.6-0.8,0.8C200.7,73.2,200.3,73.3,199.8,73.3z     M199.1,72.4h0.6c0.3,0,0.5-0.1,0.8-0.2c0.2-0.1,0.3-0.3,0.4-0.5c0.1-0.3,0.2-0.6,0.2-0.9c0-0.3,0-0.6-0.2-0.9    c-0.1-0.2-0.3-0.3-0.4-0.5c-0.3-0.1-0.5-0.2-0.8-0.2h-0.6V72.4z M204.3,69.3v-0.9h3.9v0.9h-1.5v3.9h-1v-3.9H204.3z M213,70.8    c0,0.4-0.1,1-0.3,1.3s-0.4,0.6-0.8,0.9c-0.7,0.3-1.6,0.3-2.3,0c-0.3-0.2-0.6-0.5-0.8-0.9c-0.3-0.9-0.3-1.8,0-2.6    c0.2-0.3,0.4-0.6,0.8-0.9c0.7-0.3,1.6-0.3,2.3,0c0.3,0.2,0.6,0.5,0.8,0.9C212.9,69.9,213,70.4,213,70.8L213,70.8z M212,70.8    c0-0.3,0-0.6-0.2-0.9c-0.1-0.2-0.3-0.4-0.4-0.5c-0.4-0.3-0.9-0.3-1.3,0c-0.2,0.1-0.3,0.3-0.4,0.5c-0.2,0.5-0.2,1.1,0,1.7    c0.1,0.2,0.3,0.4,0.4,0.5c0.4,0.3,0.9,0.3,1.3,0c0.2-0.1,0.3-0.3,0.4-0.5C212,71.4,212,71.2,212,70.8L212,70.8z M219.5,70.1h-1    c0-0.1-0.1-0.3-0.1-0.3c-0.1-0.1-0.2-0.2-0.3-0.3c-0.1-0.1-0.2-0.2-0.3-0.2c-0.1,0-0.3-0.1-0.3-0.1c-0.3,0-0.4,0.1-0.6,0.2    c-0.2,0.2-0.3,0.3-0.4,0.5c-0.1,0.3-0.2,0.5-0.2,0.9c0,0.3,0,0.6,0.2,0.9c0.1,0.2,0.3,0.4,0.4,0.5c0.2,0.1,0.4,0.2,0.6,0.2    c0.1,0,0.3,0,0.3-0.1c0.1,0,0.2-0.1,0.3-0.2c0.1-0.1,0.2-0.2,0.3-0.3c0.1-0.1,0.1-0.3,0.1-0.3h1c0,0.3-0.1,0.4-0.2,0.6    c-0.1,0.2-0.3,0.3-0.4,0.5s-0.4,0.3-0.6,0.3c-0.3,0.1-0.5,0.2-0.8,0.2c-0.4,0-0.8-0.1-1.1-0.3c-0.3-0.2-0.6-0.5-0.8-0.9    c-0.3-0.9-0.3-1.8,0-2.6c0.2-0.3,0.4-0.6,0.8-0.9c0.3-0.2,0.7-0.3,1.1-0.3c0.3,0,0.5,0,0.8,0.1s0.4,0.2,0.6,0.3    c0.2,0.2,0.3,0.3,0.4,0.5C219.4,69.6,219.5,69.8,219.5,70.1L219.5,70.1z M220.3,73.3v-4.8h1.9c0.3,0,0.6,0.1,0.9,0.2    c0.2,0.1,0.4,0.3,0.5,0.4c0.1,0.2,0.2,0.4,0.2,0.6s0,0.3-0.1,0.5c-0.1,0.2-0.2,0.3-0.3,0.3c-0.2,0.1-0.3,0.2-0.4,0.2v0.1    c0.2,0,0.3,0.1,0.5,0.2c0.2,0.1,0.3,0.3,0.3,0.4s0.2,0.4,0.2,0.6c0,0.3-0.1,0.4-0.2,0.7c-0.2,0.2-0.3,0.3-0.5,0.4    c-0.3,0.1-0.6,0.2-0.9,0.2L220.3,73.3z M221.2,72.4h0.8c0.2,0,0.4,0,0.6-0.2c0.1-0.1,0.2-0.3,0.2-0.4c0-0.1,0-0.3-0.1-0.3    c-0.1-0.1-0.2-0.2-0.3-0.3c-0.1-0.1-0.3-0.1-0.4-0.1h-0.9L221.2,72.4z M221.2,70.5h0.8c0.1,0,0.3,0,0.3-0.1    c0.1-0.1,0.2-0.1,0.3-0.2c0.1-0.1,0.1-0.2,0.1-0.3c0-0.2-0.1-0.3-0.2-0.4c-0.2-0.1-0.3-0.2-0.5-0.2h-0.8V70.5z M227.2,69.8    c0-0.2-0.1-0.3-0.3-0.4c-0.2-0.1-0.3-0.2-0.6-0.2c-0.2,0-0.3,0-0.4,0.1c-0.1,0-0.2,0.1-0.3,0.2c-0.1,0.1-0.1,0.2-0.1,0.3    c0,0.1,0,0.2,0.1,0.3c0,0.1,0.1,0.1,0.2,0.2s0.2,0.1,0.3,0.1c0.1,0,0.2,0.1,0.3,0.1l0.4,0.1c0.2,0,0.3,0.1,0.6,0.2    c0.2,0.1,0.3,0.2,0.4,0.3c0.1,0.1,0.3,0.3,0.3,0.4c0.1,0.2,0.1,0.3,0.1,0.5c0,0.3-0.1,0.5-0.3,0.8s-0.3,0.4-0.6,0.5    c-0.3,0.1-0.7,0.2-1,0.2c-0.3,0-0.7-0.1-1-0.2c-0.3-0.1-0.5-0.3-0.7-0.5c-0.2-0.3-0.3-0.5-0.3-0.9h1c0,0.2,0.1,0.3,0.2,0.4    c0.1,0.1,0.2,0.2,0.3,0.3c0.2,0.1,0.3,0.1,0.4,0.1c0.2,0,0.3,0,0.4-0.1c0.1,0,0.3-0.1,0.3-0.2c0.1-0.1,0.1-0.2,0.1-0.3    c0-0.1,0-0.2-0.1-0.3c-0.1-0.1-0.2-0.2-0.3-0.2c-0.2-0.1-0.3-0.1-0.4-0.2l-0.5-0.1c-0.3-0.1-0.7-0.3-1-0.4    c-0.3-0.2-0.3-0.5-0.3-0.9c0-0.3,0.1-0.5,0.3-0.8s0.3-0.4,0.6-0.5c0.3-0.1,0.6-0.2,1-0.2c0.3,0,0.6,0.1,1,0.2    c0.3,0.1,0.4,0.3,0.6,0.5s0.3,0.5,0.3,0.8L227.2,69.8z M228.9,73.3v-4.8h3.2v0.9H230v1.1h2v0.9h-2v1.1h2.2v0.9L228.9,73.3z     M241.5,68.5v4.8h-0.9l-2.1-3l0,0v3h-1v-4.8h0.9l2.1,3l0,0v-3H241.5z M242.4,73.3v-4.8h3.2v0.9h-2.2v1.1h2v0.9h-2v1.1h2.2v0.9    L242.4,73.3z M247.4,73.3l-1.4-4.8h1.1l0.8,3.3l0,0l0.9-3.3h1l0.9,3.3l0,0l0.8-3.3h1.1l-1.4,4.8h-1l-0.9-3.1l0,0l-0.9,3.1    L247.4,73.3z M256.4,73.3h-1.7v-4.8h1.7c0.4,0,0.9,0.1,1.2,0.3s0.6,0.4,0.8,0.8c0.3,0.8,0.3,1.7,0,2.5c-0.2,0.3-0.4,0.6-0.8,0.8    C257.3,73.2,256.9,73.3,256.4,73.3L256.4,73.3z M255.7,72.4h0.6c0.3,0,0.5-0.1,0.8-0.2c0.2-0.1,0.3-0.3,0.4-0.5    c0.1-0.3,0.2-0.6,0.2-0.9c0-0.3,0-0.6-0.2-0.9c-0.1-0.2-0.3-0.3-0.4-0.5c-0.3-0.1-0.5-0.2-0.8-0.2h-0.6V72.4z M259.5,73.3v-4.8    h3.2v0.9h-2.2v1.1h2v0.9h-2v1.1h2.2v0.9L259.5,73.3z M263.5,73.3v-4.8h1v3.9h2v0.9H263.5z M267.3,73.3v-4.8h1v2h2.1v-2h1v4.8h-1    v-2h-2.1v2L267.3,73.3z M273.2,68.5v4.8h-1v-4.8H273.2z M275,72.6v0.3c0,0.2-0.1,0.4-0.1,0.6c-0.1,0.2-0.1,0.3-0.2,0.5    s-0.1,0.3-0.2,0.3H274c0-0.1,0.1-0.3,0.1-0.3c0-0.2,0.1-0.3,0.1-0.5s0.1-0.4,0.1-0.6v-0.3H275z M279.7,73.3h-1l1.7-4.8h1.3    l1.7,4.8h-1l-1.2-3.7l0,0L279.7,73.3z M279.6,71.3h2.5v0.8h-2.5V71.3z M283.8,73.3v-4.8h3.1v0.9h-2.2v1.1h1.9v0.9h-1.9v2    L283.8,73.3z M287.6,73.3v-4.8h3.1v0.9h-2.2v1.1h1.9v0.9h-1.9v2L287.6,73.3z M292.4,68.5v4.8h-1v-4.8H292.4z M293.3,73.3v-4.8h1    v3.9h2v0.9H293.3z M298,68.5v4.8h-1v-4.8H298z M299.7,73.3h-1l1.7-4.8h1.3l1.7,4.8h-1l-1.2-3.7l0,0L299.7,73.3z M299.6,71.3h2.5    v0.8h-2.5V71.3z M303,69.3v-0.9h3.9v0.9h-1.5v3.9h-1v-3.9H303z M308.6,68.5v4.8h-1v-4.8H308.6z M313.8,70.8c0,0.4-0.1,1-0.3,1.3    s-0.4,0.6-0.8,0.9c-0.7,0.3-1.6,0.3-2.3,0c-0.3-0.2-0.6-0.5-0.8-0.9c-0.3-0.9-0.3-1.8,0-2.6c0.2-0.3,0.4-0.6,0.8-0.9    c0.7-0.3,1.6-0.3,2.3,0c0.3,0.2,0.6,0.5,0.8,0.9C313.7,69.9,313.8,70.4,313.8,70.8z M312.8,70.8c0-0.3,0-0.6-0.2-0.9    c-0.1-0.2-0.3-0.4-0.4-0.5c-0.3-0.3-0.9-0.3-1.3,0c-0.2,0.1-0.3,0.3-0.4,0.5c-0.2,0.5-0.2,1.1,0,1.7c0.1,0.2,0.3,0.4,0.4,0.5    c0.3,0.3,0.9,0.3,1.3,0c0.2-0.1,0.3-0.3,0.4-0.5C312.8,71.4,312.8,71.2,312.8,70.8z M318.5,68.5v4.8h-0.9l-2.1-3l0,0v3h-1v-4.8    h0.9l2.1,3l0,0v-3H318.5z M324.9,68.5v4.8H324l-2.1-3l0,0v3h-1v-4.8h0.9l2.1,3l0,0v-3H324.9z M330.1,70.8c0,0.4-0.1,1-0.3,1.3    s-0.4,0.6-0.8,0.9c-0.7,0.3-1.6,0.3-2.3,0c-0.3-0.2-0.6-0.5-0.8-0.9c-0.3-0.9-0.3-1.8,0-2.6c0.2-0.3,0.4-0.6,0.8-0.9    c0.7-0.3,1.6-0.3,2.3,0c0.3,0.2,0.6,0.5,0.8,0.9C330,69.9,330.1,70.4,330.1,70.8z M329.1,70.8c0-0.3,0-0.6-0.2-0.9    c-0.1-0.2-0.3-0.4-0.4-0.5c-0.3-0.3-0.9-0.3-1.3,0c-0.2,0.1-0.3,0.3-0.4,0.5c-0.2,0.5-0.2,1.1,0,1.7c0.1,0.2,0.3,0.4,0.4,0.5    c0.3,0.3,0.9,0.3,1.3,0c0.2-0.1,0.3-0.3,0.4-0.5C329.1,71.4,329.2,71.2,329.1,70.8L329.1,70.8z M331.2,73.3    c-0.3,0-0.5-0.3-0.5-0.5l0,0c0-0.2,0.1-0.3,0.2-0.3c0.2-0.2,0.6-0.2,0.8,0l0,0c0.2,0.2,0.3,0.4,0.1,0.7c-0.1,0.1-0.1,0.2-0.2,0.2    C331.4,73.3,331.3,73.3,331.2,73.3L331.2,73.3z M335.9,68.5v4.8h-1v-3.8l0,0l-1.1,0.7v-0.9l1.2-0.8H335.9z M338.8,68.4    c0.3,0,0.5,0,0.7,0.1c0.3,0.1,0.4,0.3,0.6,0.4c0.2,0.2,0.3,0.4,0.4,0.7c0.1,0.3,0.2,0.7,0.2,1.1c0,0.3,0,0.7-0.2,1    c-0.1,0.3-0.2,0.5-0.3,0.8c-0.2,0.2-0.3,0.3-0.6,0.5c-0.3,0.1-0.5,0.2-0.8,0.2c-0.3,0-0.6-0.1-0.9-0.2c-0.4-0.3-0.8-0.7-0.9-1.2    h1c0,0.2,0.1,0.3,0.3,0.4c0.2,0.1,0.3,0.2,0.4,0.2c0.3,0,0.6-0.2,0.7-0.4c0.2-0.3,0.3-0.7,0.3-1.1l0,0c-0.1,0.2-0.2,0.3-0.3,0.3    c-0.1,0.1-0.3,0.2-0.4,0.3c-0.2,0.1-0.3,0.1-0.5,0.1c-0.3,0-0.5-0.1-0.8-0.2c-0.3-0.2-0.4-0.3-0.5-0.5c-0.3-0.5-0.3-1.1,0-1.7    c0.2-0.3,0.3-0.4,0.6-0.6C338.2,68.5,338.4,68.4,338.8,68.4L338.8,68.4z M338.8,69.2c-0.2,0-0.3,0-0.4,0.1    c-0.1,0.1-0.3,0.2-0.3,0.3c-0.1,0.1-0.1,0.3-0.1,0.4s0,0.3,0.1,0.4c0.1,0.1,0.2,0.3,0.3,0.3c0.1,0.1,0.3,0.1,0.4,0.1    c0.3,0,0.4-0.1,0.6-0.3c0.1-0.1,0.2-0.2,0.2-0.3c0-0.1,0.1-0.2,0.1-0.3c0-0.2,0-0.3-0.1-0.4c-0.1-0.1-0.2-0.3-0.3-0.3    C339,69.2,339,69.2,338.8,69.2L338.8,69.2z M343.1,73.3c-0.3,0-0.6-0.1-1-0.2c-0.3-0.1-0.4-0.3-0.6-0.5c-0.2-0.2-0.3-0.4-0.3-0.7    h1c0,0.1,0.1,0.3,0.1,0.3c0.1,0.1,0.2,0.2,0.3,0.2c0.1,0.1,0.3,0.1,0.4,0.1c0.2,0,0.3,0,0.4-0.1c0.1-0.1,0.2-0.1,0.3-0.3    c0.1-0.1,0.1-0.2,0.1-0.3c0-0.1,0-0.3-0.1-0.3c-0.1-0.1-0.2-0.2-0.3-0.3c-0.2-0.1-0.3-0.1-0.4-0.1h-0.4v-0.8h0.4    c0.2,0,0.3,0,0.4-0.1c0.1-0.1,0.2-0.1,0.3-0.3c0.2-0.3,0.1-0.6-0.2-0.8h-0.1c-0.1-0.1-0.3-0.1-0.3-0.1c-0.1,0-0.3,0-0.3,0.1    s-0.2,0.1-0.3,0.2c-0.1,0.1-0.1,0.2-0.1,0.3h-1c0-0.3,0.1-0.5,0.3-0.7c0.2-0.2,0.3-0.3,0.6-0.5c0.3-0.1,0.6-0.2,0.9-0.2    s0.6,0.1,0.9,0.2c0.3,0.1,0.4,0.3,0.6,0.5c0.2,0.2,0.2,0.4,0.2,0.7s-0.1,0.5-0.3,0.7c-0.2,0.2-0.4,0.3-0.6,0.3l0,0    c0.3,0,0.6,0.2,0.8,0.3c0.2,0.2,0.3,0.4,0.3,0.8c0,0.3-0.1,0.5-0.3,0.7c-0.2,0.3-0.4,0.4-0.6,0.5    C343.8,73.3,343.5,73.3,343.1,73.3z M347.8,68.5v4.8h-1v-3.8l0,0l-1.1,0.7v-0.9l1.2-0.8H347.8z M350.7,73.3    c-0.3,0-0.6-0.1-0.9-0.2c-0.3-0.1-0.4-0.3-0.6-0.5c-0.2-0.2-0.3-0.4-0.3-0.7h1c0,0.2,0.1,0.3,0.3,0.4c0.2,0.1,0.3,0.2,0.5,0.2    c0.2,0,0.3,0,0.4-0.1c0.1-0.1,0.3-0.2,0.3-0.3c0.2-0.3,0.2-0.6,0-0.9c-0.1-0.1-0.2-0.3-0.3-0.3c-0.1-0.1-0.3-0.1-0.4-0.1    c-0.2,0-0.3,0-0.4,0.1c-0.1,0.1-0.3,0.2-0.3,0.3l-0.9-0.2l0.3-2.5h2.9v0.8H350l-0.1,1.2l0,0c0.1-0.1,0.3-0.3,0.3-0.3    c0.2-0.1,0.3-0.1,0.6-0.1c0.5,0,1,0.3,1.3,0.8c0.3,0.5,0.3,1.1,0,1.7c-0.2,0.3-0.3,0.4-0.6,0.6C351.4,73.3,351,73.3,350.7,73.3    L350.7,73.3z M355.3,68.5v4.8h-1v-3.8l0,0l-1.1,0.7v-0.9l1.2-0.8H355.3z M358.2,73.3c-0.3,0-0.6-0.1-0.9-0.2s-0.4-0.3-0.6-0.5    c-0.2-0.2-0.3-0.4-0.3-0.7h1c0,0.2,0.1,0.3,0.3,0.4c0.2,0.1,0.3,0.2,0.5,0.2c0.2,0,0.3,0,0.4-0.1c0.1-0.1,0.3-0.2,0.3-0.3    c0.2-0.3,0.2-0.6,0-0.9c-0.1-0.1-0.2-0.3-0.3-0.3c-0.1-0.1-0.3-0.1-0.4-0.1c-0.2,0-0.3,0-0.4,0.1c-0.1,0.1-0.3,0.2-0.3,0.3    l-0.9-0.2l0.3-2.5h2.9v0.8h-2.1l-0.1,1.2l0,0c0.1-0.1,0.3-0.3,0.3-0.3c0.2-0.1,0.3-0.1,0.6-0.1c0.5,0,1,0.3,1.3,0.8    c0.2,0.3,0.2,0.5,0.2,0.8s-0.1,0.6-0.3,0.9s-0.3,0.4-0.6,0.6C358.8,73.3,358.4,73.3,358.2,73.3L358.2,73.3z"></path>		</g>	</g></g></svg>